<?xml version="1.0" encoding="UTF-8"?>
<svg id="katman_2" data-name="katman 2" xmlns="http://www.w3.org/2000/svg" viewBox="0 0 85.97 86.14">
  <defs>
    <style>
      .cls-1 {
        fill: #fff;
        fill-rule: evenodd;
      }
    </style>
  </defs>
  <g id="OBJECTS">
    <g>
      <path class="cls-1" d="M42.99,10.99c-8.86,0-16.88,3.59-22.69,9.39-5.8,5.81-9.4,13.83-9.4,22.69s3.6,16.88,9.4,22.68,13.83,9.4,22.69,9.4,16.87-3.59,22.68-9.4c5.81-5.8,9.4-13.82,9.4-22.68s-3.59-16.88-9.4-22.69c-5.81-5.8-13.83-9.39-22.68-9.39ZM42.99,71.6c-2.45,0-4.83-.3-7.1-.89v-34.46h11.47c3.79,0,5.69,1.9,5.69,5.7,0,4.69-3.83,7.74-11.53,9.13l1.22,7.55c12.79-1.97,19.18-7.61,19.18-16.94,0-8.6-4.67-12.91-14.02-12.91h-20.49v38.2c-7.8-5.09-12.96-13.9-12.96-23.91,0-15.76,12.78-28.54,28.54-28.54s28.53,12.78,28.53,28.54-12.77,28.53-28.53,28.53Z"/>
      <path class="cls-1" d="M81.95,43.07l4.02-2.71-4.33-2.18,3.65-3.18-4.57-1.62,3.23-3.62-4.74-1.03,2.75-4-4.83-.43,2.22-4.31-4.84.18,1.66-4.55-4.78.78,1.08-4.73-4.65,1.38.48-4.83-4.44,1.95-.12-4.84-4.16,2.48-.74-4.79-3.81,2.99-1.33-4.66-3.41,3.45-1.91-4.46-2.95,3.84-2.44-4.18-2.45,4.18-2.95-3.84-1.9,4.46-3.42-3.45-1.32,4.66-3.82-2.99-.73,4.79-4.16-2.48-.13,4.84-4.44-1.95.48,4.83-4.65-1.38,1.08,4.73-4.78-.78,1.67,4.55-4.85-.18,2.22,4.31-4.82.43,2.74,4-4.74,1.03,3.23,3.62-4.57,1.62,3.65,3.18-4.33,2.18,4.02,2.71-4.02,2.7,4.33,2.18-3.65,3.19,4.57,1.62-3.23,3.62,4.74,1.03-2.74,4,4.82.43-2.22,4.31,4.84-.18-1.66,4.55,4.78-.78-1.08,4.72,4.65-1.37-.48,4.82,4.44-1.95.13,4.85,4.16-2.49.73,4.79,3.82-2.99,1.32,4.66,3.42-3.44,1.9,4.46,2.95-3.85,2.45,4.19,2.44-4.19,2.95,3.85,1.91-4.46,3.41,3.44,1.33-4.66,3.81,2.99.73-4.79,4.17,2.49.12-4.85,4.44,1.95-.48-4.82,4.65,1.37-1.08-4.72,4.78.78-1.66-4.55,4.84.18-2.22-4.31,4.83-.43-2.75-4,4.74-1.03-3.23-3.62,4.57-1.62-3.65-3.19,4.33-2.18-4.02-2.7ZM67.61,67.69c-6.3,6.3-15.01,10.2-24.62,10.2s-18.32-3.9-24.63-10.2c-6.3-6.3-10.19-15.01-10.19-24.62s3.89-18.32,10.19-24.62c6.31-6.3,15.01-10.2,24.63-10.2s18.32,3.9,24.62,10.2,10.19,15,10.19,24.62-3.89,18.32-10.19,24.62Z"/>
    </g>
  </g>
</svg>