<?xml version="1.0" encoding="UTF-8"?>
<svg id="katman_2" data-name="katman 2" xmlns="http://www.w3.org/2000/svg" xmlns:xlink="http://www.w3.org/1999/xlink" viewBox="0 0 8.7 8.8">
  <defs>
    <style>
      .cls-1 {
        fill: url(#radial-gradient-34);
      }

      .cls-2 {
        fill: url(#radial-gradient-10);
      }

      .cls-3 {
        fill: url(#radial-gradient-70);
      }

      .cls-4 {
        fill: url(#radial-gradient-64);
      }

      .cls-5 {
        fill: url(#radial-gradient-65);
      }

      .cls-6 {
        fill: url(#radial-gradient-45);
      }

      .cls-7 {
        fill: url(#radial-gradient-56);
      }

      .cls-8 {
        fill: url(#radial-gradient-66);
      }

      .cls-9 {
        fill: url(#radial-gradient-35);
      }

      .cls-10 {
        fill: url(#radial-gradient-76);
      }

      .cls-11 {
        fill: url(#radial-gradient-46);
      }

      .cls-12 {
        fill: url(#radial-gradient-9);
      }

      .cls-13 {
        fill: url(#radial-gradient-89);
      }

      .cls-14 {
        fill: url(#radial-gradient-28);
      }

      .cls-15 {
        fill: url(#radial-gradient-90);
      }

      .cls-16 {
        fill: url(#radial-gradient-97);
      }

      .cls-17 {
        fill: url(#radial-gradient-88);
      }

      .cls-18 {
        fill: url(#radial-gradient-61);
      }

      .cls-19 {
        fill: url(#radial-gradient-81);
      }

      .cls-20 {
        fill: url(#radial-gradient-48);
      }

      .cls-21 {
        fill: url(#radial-gradient-74);
      }

      .cls-22 {
        fill: url(#radial-gradient-14);
      }

      .cls-23 {
        fill: url(#radial-gradient-58);
      }

      .cls-24 {
        fill: url(#radial-gradient-16);
      }

      .cls-25 {
        fill: url(#radial-gradient-40);
      }

      .cls-26 {
        fill: url(#radial-gradient-100);
      }

      .cls-27 {
        fill: url(#radial-gradient-18);
      }

      .cls-28 {
        fill: url(#radial-gradient-98);
      }

      .cls-29 {
        fill: url(#radial-gradient-38);
      }

      .cls-30 {
        fill: url(#radial-gradient-92);
      }

      .cls-31 {
        fill: url(#radial-gradient-94);
      }

      .cls-32 {
        fill: url(#radial-gradient-83);
      }

      .cls-33 {
        fill: url(#radial-gradient-57);
      }

      .cls-34 {
        fill: url(#radial-gradient-5);
      }

      .cls-35 {
        fill: url(#radial-gradient-54);
      }

      .cls-36 {
        fill: url(#radial-gradient-37);
      }

      .cls-37 {
        fill: url(#radial-gradient-87);
      }

      .cls-38 {
        fill: url(#radial-gradient-69);
      }

      .cls-39 {
        fill: url(#radial-gradient-96);
      }

      .cls-40 {
        fill: url(#radial-gradient-80);
      }

      .cls-41 {
        fill: url(#radial-gradient);
      }

      .cls-42 {
        fill: url(#radial-gradient-3);
      }

      .cls-43 {
        fill: url(#radial-gradient-32);
      }

      .cls-44 {
        fill: url(#radial-gradient-86);
      }

      .cls-45 {
        fill: url(#radial-gradient-24);
      }

      .cls-46 {
        fill: url(#radial-gradient-71);
      }

      .cls-47 {
        fill: url(#radial-gradient-59);
      }

      .cls-48 {
        fill: url(#radial-gradient-20);
      }

      .cls-49 {
        fill: url(#radial-gradient-67);
      }

      .cls-50 {
        fill: url(#radial-gradient-104);
      }

      .cls-51 {
        fill: url(#radial-gradient-44);
      }

      .cls-52 {
        fill: url(#radial-gradient-29);
      }

      .cls-53 {
        fill: url(#radial-gradient-41);
      }

      .cls-54 {
        fill: url(#radial-gradient-39);
      }

      .cls-55 {
        fill: url(#radial-gradient-62);
      }

      .cls-56 {
        fill: url(#radial-gradient-49);
      }

      .cls-57 {
        fill: url(#radial-gradient-99);
      }

      .cls-58 {
        fill: url(#radial-gradient-84);
      }

      .cls-59 {
        fill: url(#radial-gradient-11);
      }

      .cls-60 {
        fill: url(#radial-gradient-26);
      }

      .cls-61 {
        fill: url(#radial-gradient-103);
      }

      .cls-62 {
        fill: url(#radial-gradient-8);
      }

      .cls-63 {
        fill: url(#radial-gradient-82);
      }

      .cls-64 {
        fill: url(#radial-gradient-42);
      }

      .cls-65 {
        fill: url(#radial-gradient-2);
      }

      .cls-66 {
        fill: url(#radial-gradient-23);
      }

      .cls-67 {
        fill: url(#radial-gradient-27);
      }

      .cls-68 {
        fill: url(#radial-gradient-30);
      }

      .cls-69 {
        fill: url(#radial-gradient-63);
      }

      .cls-70 {
        fill: url(#radial-gradient-21);
      }

      .cls-71 {
        fill: url(#radial-gradient-93);
      }

      .cls-72 {
        fill: url(#radial-gradient-53);
      }

      .cls-73 {
        fill: url(#radial-gradient-4);
      }

      .cls-74 {
        fill: url(#radial-gradient-72);
      }

      .cls-75 {
        fill: url(#radial-gradient-102);
      }

      .cls-76 {
        fill: url(#radial-gradient-25);
      }

      .cls-77 {
        fill: url(#radial-gradient-22);
      }

      .cls-78 {
        fill: url(#radial-gradient-77);
      }

      .cls-79 {
        fill: url(#radial-gradient-36);
      }

      .cls-80 {
        fill: url(#radial-gradient-47);
      }

      .cls-81 {
        fill: url(#radial-gradient-68);
      }

      .cls-82 {
        fill: url(#radial-gradient-12);
      }

      .cls-83 {
        fill: url(#radial-gradient-19);
      }

      .cls-84 {
        fill: url(#radial-gradient-79);
      }

      .cls-85 {
        fill: url(#radial-gradient-95);
      }

      .cls-86 {
        fill: url(#radial-gradient-107);
      }

      .cls-87 {
        fill: url(#radial-gradient-52);
      }

      .cls-88 {
        fill: url(#radial-gradient-31);
      }

      .cls-89 {
        fill: url(#radial-gradient-51);
      }

      .cls-90 {
        fill: url(#radial-gradient-15);
      }

      .cls-91 {
        fill: url(#radial-gradient-78);
      }

      .cls-92 {
        fill: url(#radial-gradient-50);
      }

      .cls-93 {
        fill: url(#radial-gradient-91);
      }

      .cls-94 {
        fill: url(#radial-gradient-60);
      }

      .cls-95 {
        fill: url(#radial-gradient-85);
      }

      .cls-96 {
        fill: url(#radial-gradient-6);
      }

      .cls-97 {
        fill: url(#radial-gradient-75);
      }

      .cls-98 {
        fill: url(#radial-gradient-55);
      }

      .cls-99 {
        fill: url(#radial-gradient-33);
      }

      .cls-100 {
        fill: url(#radial-gradient-7);
      }

      .cls-101 {
        fill: url(#radial-gradient-105);
      }

      .cls-102 {
        fill: url(#radial-gradient-17);
      }

      .cls-103 {
        fill: url(#radial-gradient-43);
      }

      .cls-104 {
        fill: url(#radial-gradient-106);
      }

      .cls-105 {
        fill: url(#radial-gradient-13);
      }

      .cls-106 {
        fill: url(#radial-gradient-101);
      }

      .cls-107 {
        fill: url(#radial-gradient-73);
      }
    </style>
    <radialGradient id="radial-gradient" cx="101.24" cy="-8.4" fx="101.24" fy="-8.4" r="13.5" gradientTransform="translate(104.78 -21.7) rotate(-180)" gradientUnits="userSpaceOnUse">
      <stop offset="0" stop-color="#424242"/>
      <stop offset=".51" stop-color="#272727"/>
      <stop offset=".99" stop-color="#131313"/>
    </radialGradient>
    <radialGradient id="radial-gradient-2" cx="101.24" cy="-8.34" fx="101.24" fy="-8.34" r="13.54" xlink:href="#radial-gradient"/>
    <radialGradient id="radial-gradient-3" cx="101.24" cy="-8.34" fx="101.24" fy="-8.34" r="13.54" xlink:href="#radial-gradient"/>
    <radialGradient id="radial-gradient-4" cx="101.24" fx="101.24" r="13.5" xlink:href="#radial-gradient"/>
    <radialGradient id="radial-gradient-5" cx="101.24" cy="-8.33" fx="101.24" fy="-8.33" r="13.55" xlink:href="#radial-gradient"/>
    <radialGradient id="radial-gradient-6" cx="101.24" cy="-8.35" fx="101.24" fy="-8.35" r="13.54" xlink:href="#radial-gradient"/>
    <radialGradient id="radial-gradient-7" cx="101.24" cy="-8.35" fx="101.24" fy="-8.35" r="13.54" xlink:href="#radial-gradient"/>
    <radialGradient id="radial-gradient-8" cx="101.24" cy="-8.34" fx="101.24" fy="-8.34" r="13.54" xlink:href="#radial-gradient"/>
    <radialGradient id="radial-gradient-9" cx="101.24" cy="-8.37" fx="101.24" fy="-8.37" r="13.52" xlink:href="#radial-gradient"/>
    <radialGradient id="radial-gradient-10" cx="101.24" cy="-8.33" fx="101.24" fy="-8.33" r="13.55" xlink:href="#radial-gradient"/>
    <radialGradient id="radial-gradient-11" cx="101.24" cy="-8.33" fx="101.24" fy="-8.33" r="13.55" xlink:href="#radial-gradient"/>
    <radialGradient id="radial-gradient-12" cx="101.24" cy="-8.41" fx="101.24" fy="-8.41" r="13.5" xlink:href="#radial-gradient"/>
    <radialGradient id="radial-gradient-13" cx="101.24" cy="-8.41" fx="101.24" fy="-8.41" r="13.5" xlink:href="#radial-gradient"/>
    <radialGradient id="radial-gradient-14" cx="101.24" cy="-8.33" fx="101.24" fy="-8.33" r="13.55" xlink:href="#radial-gradient"/>
    <radialGradient id="radial-gradient-15" cx="101.24" cy="-8.33" fx="101.24" fy="-8.33" r="13.55" xlink:href="#radial-gradient"/>
    <radialGradient id="radial-gradient-16" cx="101.24" cy="-8.28" fx="101.24" fy="-8.28" r="13.58" xlink:href="#radial-gradient"/>
    <radialGradient id="radial-gradient-17" cx="101.24" cy="-8.28" fx="101.24" fy="-8.28" r="13.58" xlink:href="#radial-gradient"/>
    <radialGradient id="radial-gradient-18" cx="101.24" cy="-8.32" fx="101.24" fy="-8.32" r="13.56" xlink:href="#radial-gradient"/>
    <radialGradient id="radial-gradient-19" cx="101.24" cy="-8.38" fx="101.24" fy="-8.38" r="13.52" xlink:href="#radial-gradient"/>
    <radialGradient id="radial-gradient-20" cx="101.24" cy="-8.32" fx="101.24" fy="-8.32" r="13.56" xlink:href="#radial-gradient"/>
    <radialGradient id="radial-gradient-21" cx="101.24" cy="-8.38" fx="101.24" fy="-8.38" r="13.52" xlink:href="#radial-gradient"/>
    <radialGradient id="radial-gradient-22" cx="1.19" cy="-.89" fx="1.19" fy="-.89" r="13.56" gradientTransform="translate(-9.79 -2.04)" xlink:href="#radial-gradient"/>
    <radialGradient id="radial-gradient-23" cx="1.21" cy="-.89" fx="1.21" fy="-.89" r="13.54" gradientTransform="translate(-9.79 -2.04)" xlink:href="#radial-gradient"/>
    <radialGradient id="radial-gradient-24" cx="1.21" cy="-.89" fx="1.21" fy="-.89" r="13.54" gradientTransform="translate(-9.79 -2.04)" xlink:href="#radial-gradient"/>
    <radialGradient id="radial-gradient-25" cx="1.19" cy="-.89" fx="1.19" fy="-.89" r="13.56" gradientTransform="translate(-9.79 -2.04)" xlink:href="#radial-gradient"/>
    <radialGradient id="radial-gradient-26" cx="1.21" cy="-.89" fx="1.21" fy="-.89" r="13.54" gradientTransform="translate(-9.79 -2.04)" xlink:href="#radial-gradient"/>
    <radialGradient id="radial-gradient-27" cx="1.2" cy="-.89" fx="1.2" fy="-.89" r="13.55" gradientTransform="translate(-9.79 -2.04)" xlink:href="#radial-gradient"/>
    <radialGradient id="radial-gradient-28" cx="1.21" cy="-.89" fx="1.21" fy="-.89" r="13.54" gradientTransform="translate(-9.79 -2.04)" xlink:href="#radial-gradient"/>
    <radialGradient id="radial-gradient-29" cx="1.2" cy="-.89" fx="1.2" fy="-.89" r="13.55" gradientTransform="translate(-9.79 -2.04)" xlink:href="#radial-gradient"/>
    <radialGradient id="radial-gradient-30" cx="1.21" cy="-.89" fx="1.21" fy="-.89" r="13.54" gradientTransform="translate(-9.79 -2.04)" xlink:href="#radial-gradient"/>
    <radialGradient id="radial-gradient-31" cx="1.21" cy="-.89" fx="1.21" fy="-.89" r="13.54" gradientTransform="translate(-9.79 -2.04)" xlink:href="#radial-gradient"/>
    <radialGradient id="radial-gradient-32" cx="1.21" cy="-.89" fx="1.21" fy="-.89" r="13.54" gradientTransform="translate(-9.79 -2.04)" xlink:href="#radial-gradient"/>
    <radialGradient id="radial-gradient-33" cx="1.18" cy="-.89" fx="1.18" fy="-.89" r="13.56" gradientTransform="translate(-9.79 -2.04)" xlink:href="#radial-gradient"/>
    <radialGradient id="radial-gradient-34" cx="1.18" cy="-.89" fx="1.18" fy="-.89" r="13.57" gradientTransform="translate(-9.79 -2.04)" xlink:href="#radial-gradient"/>
    <radialGradient id="radial-gradient-35" cx="1.21" cy="-.89" fx="1.21" fy="-.89" r="13.54" gradientTransform="translate(-9.79 -2.04)" xlink:href="#radial-gradient"/>
    <radialGradient id="radial-gradient-36" cx="1.21" cy="-.89" fx="1.21" fy="-.89" r="13.54" gradientTransform="translate(-9.79 -2.04)" xlink:href="#radial-gradient"/>
    <radialGradient id="radial-gradient-37" cx="1.21" cy="-.89" fx="1.21" fy="-.89" r="13.54" gradientTransform="translate(-9.79 -2.04)" xlink:href="#radial-gradient"/>
    <radialGradient id="radial-gradient-38" cx="1.2" cy="-.89" fx="1.2" fy="-.89" r="13.55" gradientTransform="translate(-9.79 -2.04)" xlink:href="#radial-gradient"/>
    <radialGradient id="radial-gradient-39" cx="1.21" cy="-.89" fx="1.21" fy="-.89" r="13.54" gradientTransform="translate(-9.79 -2.04)" xlink:href="#radial-gradient"/>
    <radialGradient id="radial-gradient-40" cx="1.19" cy="-.89" fx="1.19" fy="-.89" r="13.56" gradientTransform="translate(-9.79 -2.04)" xlink:href="#radial-gradient"/>
    <radialGradient id="radial-gradient-41" cx="1.2" cy="-.89" fx="1.2" fy="-.89" r="13.55" gradientTransform="translate(-9.79 -2.04)" xlink:href="#radial-gradient"/>
    <radialGradient id="radial-gradient-42" cx="1.19" cy="-.89" fx="1.19" fy="-.89" r="13.56" gradientTransform="translate(-9.79 -2.04)" xlink:href="#radial-gradient"/>
    <radialGradient id="radial-gradient-43" cx="13.3" cy="-37.36" fx="13.3" fy="-37.36" r="13.53" gradientTransform="translate(106.55 58.84) rotate(-45)" xlink:href="#radial-gradient"/>
    <radialGradient id="radial-gradient-44" cx="25.63" cy="-48.04" fx="25.63" fy="-48.04" r="13.53" gradientTransform="translate(169.41 -49.34) rotate(54.91) scale(1 -1)" xlink:href="#radial-gradient"/>
    <radialGradient id="radial-gradient-45" cx="25.73" cy="-47.89" fx="25.73" fy="-47.89" r="13.55" gradientTransform="translate(169.41 -49.34) rotate(54.91) scale(1 -1)" xlink:href="#radial-gradient"/>
    <radialGradient id="radial-gradient-46" cx="21.43" cy="35.74" fx="21.43" fy="35.74" r="13.54" gradientTransform="translate(1.33 81.21) rotate(49.65)" xlink:href="#radial-gradient"/>
    <radialGradient id="radial-gradient-47" cx="21.57" cy="35.71" fx="21.57" fy="35.71" r="13.55" gradientTransform="translate(1.33 81.21) rotate(49.65)" xlink:href="#radial-gradient"/>
    <radialGradient id="radial-gradient-48" cx="84.07" cy="33.47" fx="84.07" fy="33.47" r="13.55" gradientTransform="translate(-18.66 58.84) rotate(-135) scale(1 -1)" xlink:href="#radial-gradient"/>
    <radialGradient id="radial-gradient-49" cx="83.19" cy="33.8" fx="83.19" fy="33.8" r="13.53" gradientTransform="translate(-81.52 -49.34) rotate(125.09)" xlink:href="#radial-gradient"/>
    <radialGradient id="radial-gradient-50" cx="83.49" cy="34.17" fx="83.49" fy="34.17" r="13.57" gradientTransform="translate(-81.52 -49.34) rotate(125.09)" xlink:href="#radial-gradient"/>
    <radialGradient id="radial-gradient-51" cx="86.27" cy="-40.58" fx="86.27" fy="-40.58" r="13.54" gradientTransform="translate(86.56 81.21) rotate(130.35) scale(1 -1)" xlink:href="#radial-gradient"/>
    <radialGradient id="radial-gradient-52" cx="86.35" cy="-40.51" fx="86.35" fy="-40.51" r="13.55" gradientTransform="translate(86.56 81.21) rotate(130.35) scale(1 -1)" xlink:href="#radial-gradient"/>
    <radialGradient id="radial-gradient-53" cx="86.53" cy="31.28" fx="86.53" fy="31.28" r="13.56" gradientTransform="translate(-19.01 -92.22) rotate(129.85)" xlink:href="#radial-gradient"/>
    <radialGradient id="radial-gradient-54" cx="80.78" cy="36.4" fx="80.78" fy="36.4" r="13.55" gradientTransform="translate(-71.53 21.26) rotate(-130.23) scale(1 -1)" xlink:href="#radial-gradient"/>
    <radialGradient id="radial-gradient-55" cx="80.43" cy="36.05" fx="80.43" fy="36.05" r="13.51" gradientTransform="translate(-71.53 21.26) rotate(-130.23) scale(1 -1)" xlink:href="#radial-gradient"/>
    <radialGradient id="radial-gradient-56" cx="84.16" cy="-42.69" fx="84.16" fy="-42.69" r="13.54" gradientTransform="translate(83.95 -123.47) rotate(-135.5)" xlink:href="#radial-gradient"/>
    <radialGradient id="radial-gradient-57" cx="84.65" cy="-42.39" fx="84.65" fy="-42.39" r="13.59" gradientTransform="translate(83.95 -123.47) rotate(-135.5)" xlink:href="#radial-gradient"/>
    <radialGradient id="radial-gradient-58" cx="22.43" cy="-45.53" fx="22.43" fy="-45.53" r="13.56" gradientTransform="translate(121.25 -92.22) rotate(50.15) scale(1 -1)" xlink:href="#radial-gradient"/>
    <radialGradient id="radial-gradient-59" cx="16.16" cy="-39.98" fx="16.16" fy="-39.98" r="13.56" gradientTransform="translate(173.77 21.26) rotate(-49.77)" xlink:href="#radial-gradient"/>
    <radialGradient id="radial-gradient-60" cx="16.16" cy="-40.3" fx="16.16" fy="-40.3" r="13.54" gradientTransform="translate(173.77 21.26) rotate(-49.77)" xlink:href="#radial-gradient"/>
    <radialGradient id="radial-gradient-61" cx="12.72" cy="27.68" fx="12.72" fy="27.68" r="13.55" gradientTransform="translate(18.28 -123.47) rotate(-44.5) scale(1 -1)" xlink:href="#radial-gradient"/>
    <radialGradient id="radial-gradient-62" cx="13.29" cy="27.88" fx="13.29" fy="27.88" r="13.6" gradientTransform="translate(18.28 -123.47) rotate(-44.5) scale(1 -1)" xlink:href="#radial-gradient"/>
    <radialGradient id="radial-gradient-63" cx="47.48" cy="-54.63" fx="47.48" fy="-54.63" r="13.51" gradientTransform="translate(55.02 45.06) rotate(-90)" xlink:href="#radial-gradient"/>
    <radialGradient id="radial-gradient-64" cx="47.53" cy="-54.63" fx="47.53" fy="-54.63" r="13.61" gradientTransform="translate(55.02 45.06) rotate(-90)" xlink:href="#radial-gradient"/>
    <radialGradient id="radial-gradient-65" cx="47.46" cy="-54.63" fx="47.46" fy="-54.63" r="13.47" gradientTransform="translate(55.02 45.06) rotate(-90)" xlink:href="#radial-gradient"/>
    <radialGradient id="radial-gradient-66" cx="47.5" cy="-54.63" fx="47.5" fy="-54.63" r="13.54" gradientTransform="translate(55.02 45.06) rotate(-90)" xlink:href="#radial-gradient"/>
    <radialGradient id="radial-gradient-67" cx="47.5" cy="-54.63" fx="47.5" fy="-54.63" r="13.54" gradientTransform="translate(55.02 45.06) rotate(-90)" xlink:href="#radial-gradient"/>
    <radialGradient id="radial-gradient-68" cx="47.5" cy="-54.63" fx="47.5" fy="-54.63" r="13.54" gradientTransform="translate(55.02 45.06) rotate(-90)" xlink:href="#radial-gradient"/>
    <radialGradient id="radial-gradient-69" cx="47.5" cy="-54.63" fx="47.5" fy="-54.63" r="13.55" gradientTransform="translate(55.02 45.06) rotate(-90)" xlink:href="#radial-gradient"/>
    <radialGradient id="radial-gradient-70" cx="47.49" cy="-54.63" fx="47.49" fy="-54.63" r="13.54" gradientTransform="translate(55.02 45.06) rotate(-90)" xlink:href="#radial-gradient"/>
    <radialGradient id="radial-gradient-71" cx="47.5" cy="-54.63" fx="47.5" fy="-54.63" r="13.55" gradientTransform="translate(55.02 45.06) rotate(-90)" xlink:href="#radial-gradient"/>
    <radialGradient id="radial-gradient-72" cx="47.5" cy="-54.63" fx="47.5" fy="-54.63" r="13.54" gradientTransform="translate(55.02 45.06) rotate(-90)" xlink:href="#radial-gradient"/>
    <radialGradient id="radial-gradient-73" cx="47.49" cy="-54.63" fx="47.49" fy="-54.63" r="13.54" gradientTransform="translate(55.02 45.06) rotate(-90)" xlink:href="#radial-gradient"/>
    <radialGradient id="radial-gradient-74" cx="47.5" cy="-54.63" fx="47.5" fy="-54.63" r="13.56" gradientTransform="translate(55.02 45.06) rotate(-90)" xlink:href="#radial-gradient"/>
    <radialGradient id="radial-gradient-75" cx="47.5" cy="-54.63" fx="47.5" fy="-54.63" r="13.55" gradientTransform="translate(55.02 45.06) rotate(-90)" xlink:href="#radial-gradient"/>
    <radialGradient id="radial-gradient-76" cx="47.49" cy="-54.63" fx="47.49" fy="-54.63" r="13.54" gradientTransform="translate(55.02 45.06) rotate(-90)" xlink:href="#radial-gradient"/>
    <radialGradient id="radial-gradient-77" cx="47.5" cy="-54.63" fx="47.5" fy="-54.63" r="13.54" gradientTransform="translate(55.02 45.06) rotate(-90)" xlink:href="#radial-gradient"/>
    <radialGradient id="radial-gradient-78" cx="47.5" cy="-54.63" fx="47.5" fy="-54.63" r="13.54" gradientTransform="translate(55.02 45.06) rotate(-90)" xlink:href="#radial-gradient"/>
    <radialGradient id="radial-gradient-79" cx="47.51" cy="-54.63" fx="47.51" fy="-54.63" r="13.56" gradientTransform="translate(55.02 45.06) rotate(-90)" xlink:href="#radial-gradient"/>
    <radialGradient id="radial-gradient-80" cx="47.5" cy="-54.63" fx="47.5" fy="-54.63" r="13.54" gradientTransform="translate(55.02 45.06) rotate(-90)" xlink:href="#radial-gradient"/>
    <radialGradient id="radial-gradient-81" cx="47.5" cy="-54.63" fx="47.5" fy="-54.63" r="13.55" gradientTransform="translate(55.02 45.06) rotate(-90)" xlink:href="#radial-gradient"/>
    <radialGradient id="radial-gradient-82" cx="47.49" cy="-54.63" fx="47.49" fy="-54.63" r="13.53" gradientTransform="translate(55.02 45.06) rotate(-90)" xlink:href="#radial-gradient"/>
    <radialGradient id="radial-gradient-83" cx="47.54" cy="-54.63" fx="47.54" fy="-54.63" r="13.61" gradientTransform="translate(55.02 45.06) rotate(-90)" xlink:href="#radial-gradient"/>
    <radialGradient id="radial-gradient-84" cx="47.5" cy="45.4" fx="47.5" fy="45.4" r="13.54" gradientTransform="translate(32.76 45.06) rotate(-90) scale(1 -1)" xlink:href="#radial-gradient"/>
    <radialGradient id="radial-gradient-85" cx="47.49" cy="45.4" fx="47.49" fy="45.4" r="13.54" gradientTransform="translate(32.76 45.06) rotate(-90) scale(1 -1)" xlink:href="#radial-gradient"/>
    <radialGradient id="radial-gradient-86" cx="47.49" cy="45.4" fx="47.49" fy="45.4" r="13.54" gradientTransform="translate(32.76 45.06) rotate(-90) scale(1 -1)" xlink:href="#radial-gradient"/>
    <radialGradient id="radial-gradient-87" cx="47.49" cy="45.4" fx="47.49" fy="45.4" r="13.54" gradientTransform="translate(32.76 45.06) rotate(-90) scale(1 -1)" xlink:href="#radial-gradient"/>
    <radialGradient id="radial-gradient-88" cx="47.5" cy="45.41" fx="47.5" fy="45.41" r="13.55" gradientTransform="translate(32.76 45.06) rotate(-90) scale(1 -1)" xlink:href="#radial-gradient"/>
    <radialGradient id="radial-gradient-89" cx="47.5" cy="45.41" fx="47.5" fy="45.41" r="13.55" gradientTransform="translate(32.76 45.06) rotate(-90) scale(1 -1)" xlink:href="#radial-gradient"/>
    <radialGradient id="radial-gradient-90" cx="47.5" cy="45.41" fx="47.5" fy="45.41" r="13.55" gradientTransform="translate(32.76 45.06) rotate(-90) scale(1 -1)" xlink:href="#radial-gradient"/>
    <radialGradient id="radial-gradient-91" cx="47.49" cy="45.4" fx="47.49" fy="45.4" r="13.54" gradientTransform="translate(32.76 45.06) rotate(-90) scale(1 -1)" xlink:href="#radial-gradient"/>
    <radialGradient id="radial-gradient-92" cx="47.5" cy="45.4" fx="47.5" fy="45.4" r="13.54" gradientTransform="translate(32.76 45.06) rotate(-90) scale(1 -1)" xlink:href="#radial-gradient"/>
    <radialGradient id="radial-gradient-93" cx="47.5" cy="45.4" fx="47.5" fy="45.4" r="13.54" gradientTransform="translate(32.76 45.06) rotate(-90) scale(1 -1)" xlink:href="#radial-gradient"/>
    <radialGradient id="radial-gradient-94" cx="47.49" cy="45.4" fx="47.49" fy="45.4" r="13.54" gradientTransform="translate(32.76 45.06) rotate(-90) scale(1 -1)" xlink:href="#radial-gradient"/>
    <radialGradient id="radial-gradient-95" cx="47.5" cy="45.4" fx="47.5" fy="45.4" r="13.55" gradientTransform="translate(32.76 45.06) rotate(-90) scale(1 -1)" xlink:href="#radial-gradient"/>
    <radialGradient id="radial-gradient-96" cx="47.5" cy="45.4" fx="47.5" fy="45.4" r="13.54" gradientTransform="translate(32.76 45.06) rotate(-90) scale(1 -1)" xlink:href="#radial-gradient"/>
    <radialGradient id="radial-gradient-97" cx="47.5" cy="45.39" fx="47.5" fy="45.39" r="13.54" gradientTransform="translate(32.76 45.06) rotate(-90) scale(1 -1)" xlink:href="#radial-gradient"/>
    <radialGradient id="radial-gradient-98" cx="47.5" cy="45.39" fx="47.5" fy="45.39" r="13.54" gradientTransform="translate(32.76 45.06) rotate(-90) scale(1 -1)" xlink:href="#radial-gradient"/>
    <radialGradient id="radial-gradient-99" cx="47.5" cy="45.43" fx="47.5" fy="45.43" r="13.56" gradientTransform="translate(32.76 45.06) rotate(-90) scale(1 -1)" xlink:href="#radial-gradient"/>
    <radialGradient id="radial-gradient-100" cx="47.5" cy="45.43" fx="47.5" fy="45.43" r="13.56" gradientTransform="translate(32.76 45.06) rotate(-90) scale(1 -1)" xlink:href="#radial-gradient"/>
    <radialGradient id="radial-gradient-101" cx="47.5" cy="45.4" fx="47.5" fy="45.4" r="13.54" gradientTransform="translate(32.76 45.06) rotate(-90) scale(1 -1)" xlink:href="#radial-gradient"/>
    <radialGradient id="radial-gradient-102" cx="47.5" cy="45.4" fx="47.5" fy="45.4" r="13.54" gradientTransform="translate(32.76 45.06) rotate(-90) scale(1 -1)" xlink:href="#radial-gradient"/>
    <radialGradient id="radial-gradient-103" cx="47.5" cy="45.4" fx="47.5" fy="45.4" r="13.54" gradientTransform="translate(32.76 45.06) rotate(-90) scale(1 -1)" xlink:href="#radial-gradient"/>
    <radialGradient id="radial-gradient-104" cx="47.51" cy="45.4" fx="47.51" fy="45.4" r="13.55" gradientTransform="translate(32.76 45.06) rotate(-90) scale(1 -1)" xlink:href="#radial-gradient"/>
    <radialGradient id="radial-gradient-105" cx="1.21" cy="-.89" fx="1.21" fy="-.89" r="13.54" gradientTransform="matrix(1,0,0,1,0,0)" xlink:href="#radial-gradient"/>
    <radialGradient id="radial-gradient-106" cx="1.21" cy="-.89" fx="1.21" fy="-.89" r="13.54" gradientTransform="matrix(1,0,0,1,0,0)" xlink:href="#radial-gradient"/>
    <radialGradient id="radial-gradient-107" cx="4.35" cy="4.4" fx="4.35" fy="4.4" r="2.24" gradientTransform="matrix(1,0,0,1,0,0)" xlink:href="#radial-gradient"/>
  </defs>
  <g id="Layer_1" data-name="Layer 1">
    <path class="cls-41" d="M3.99,8.04c-.02-.05,0-.11.04-.13.02-.01.04-.02.06-.02.02,0,.03.01.04.02,0,0,.02.02.02.03,0,.01,0,.02,0,.03,0,0,0,.01,0,.02,0,0,0,0,0-.02,0-.02,0-.03-.03-.05-.02,0-.05-.01-.07,0-.02.02-.03.06-.01.09,0,0,0,.01.01.02,0,0,0,0,.01,0,0,0,0,0,0,0h0s.04.01.06.01c.04,0,.08-.02.1-.07.02-.04.02-.09,0-.13,0,0,0,0,0-.02,0-.02-.02-.03-.04-.04h.11s.01.02.01.03c0,0,0,.01,0,.02.02.06.01.13-.02.18v.02s-.02.01-.03.02c0,0-.02.02-.04.03-.03.02-.06.02-.09.02-.03,0-.06,0-.08-.03h0s0-.01,0-.02c0,0,0,0-.01-.01-.01-.01-.02-.03-.02-.04Z"/>
    <path class="cls-65" d="M3.72,8.05s0-.05,0-.08c0-.03.01-.05.02-.08,0-.01.01-.02.02-.03,0-.01.01-.03.02-.04h.1s0,0-.02.01l-.03.03s-.02.04-.04.06c0,.02-.02.04-.03.07,0,.02,0,.04,0,.07v.06s0,.04.02.06c0,.02.01.04.02.05.01.04.04.06.05.08.02.03.04.05.05.06,0,0,0,0-.02,0,0-.01-.03-.02-.05-.04-.02-.02-.04-.04-.06-.07,0-.02-.02-.03-.03-.05,0-.02-.02-.04-.02-.07,0-.02,0-.05-.01-.07Z"/>
    <path class="cls-42" d="M4.88,8.12s0-.04,0-.06c0-.02,0-.05-.01-.07,0-.02-.01-.05-.02-.07-.01-.02-.03-.04-.04-.06l-.03-.03s0,0-.01-.01h.1s.02.03.02.04c0,.01,0,.02.01.03.01.03.02.05.02.08,0,.03,0,.06,0,.08,0,.03,0,.05,0,.07,0,.03-.01.04-.02.07,0,.02-.02.04-.03.05-.02.03-.05.05-.06.07-.02.02-.04.03-.05.04,0,0,0,0-.02,0,0,0,.03-.03.05-.06.01-.02.04-.04.04-.08,0-.02.02-.03.02-.05,0-.02,0-.04.01-.06Z"/>
    <path class="cls-73" d="M4.35,7.86s0-.01,0-.02c0,0,0-.02.02-.03h.11s-.03.03-.04.04c0,0,0,0,0,.02-.02.04-.02.09,0,.13.02.05.05.06.09.07.02,0,.04,0,.06-.01h0s0,0,0,0c0,0,.01,0,.01,0,0,0,.01,0,.01-.02.01-.03,0-.07-.01-.09-.02-.02-.05-.02-.07,0-.03.02-.03.03-.03.05,0,0,0,.01,0,.02,0,0,0,0,0-.02,0,0,0-.02,0-.03,0-.01.01-.02.02-.03.02,0,.03-.02.05-.02.02,0,.05,0,.06.02.03.02.05.08.04.13,0,.01-.01.03-.02.04,0,0,0,0-.01.01,0,0,0,0,0,0h0s-.05.03-.09.03c-.03,0-.06,0-.09-.02-.01,0-.03-.02-.04-.03,0,0,0,0-.02-.02v-.02s-.05-.12-.03-.18Z"/>
    <path class="cls-34" d="M4.49,8.28s-.09-.09-.13-.15c-.03-.04-.04,0-.04,0l-.03.03c-.04.05-.07.09-.11.12-.12.1-.26.09-.25.12,0,0,.03.02.08.02.05,0,.13-.02.2-.07.04-.03.08-.08.11-.14.03.06.07.11.11.13.04.03.08.05.11.06.04,0,.07.02.1.02.06,0,.09,0,.09-.02,0-.03-.11-.03-.24-.12Z"/>
    <path class="cls-96" d="M2.44,8.05s.06.09.09.15c0,.03.01.03.01.03,0,.02.02-.03.02-.03l.02-.03c.02-.05.05-.09.07-.12.08-.1.17-.09.17-.12,0,0-.02-.02-.05-.02-.03,0-.09.02-.14.07-.03.03-.06.08-.08.14-.02-.06-.05-.11-.07-.13-.02-.03-.05-.05-.08-.06-.03,0-.05-.02-.07-.02-.04,0-.06,0-.06.01,0,.03.08.03.16.12Z"/>
    <path class="cls-100" d="M6.01,8.05s.06.09.09.15c0,.03.01.03.01.03,0,.02.02-.03.02-.03l.02-.03c.02-.05.05-.09.07-.12.08-.1.18-.09.17-.12,0,0-.02-.02-.05-.02-.03,0-.09.02-.14.07-.03.03-.06.08-.08.14-.02-.06-.05-.11-.07-.13-.02-.03-.05-.05-.08-.06-.03,0-.05-.02-.07-.02-.04,0-.06,0-.06.01,0,.03.08.03.16.12Z"/>
    <path class="cls-62" d="M2.72,8.12c.08-.11.22-.19.38-.23.04-.01.07-.02.11-.03l.14-.04h.34s-.04.02-.05.03c-.01,0-.03.02-.05.02-.16.07-.32.1-.46.13-.15.03-.28.09-.35.17-.08.09-.11.18-.11.25,0,.03,0,.06,0,.08,0,.02,0,.03,0,.03,0,0-.01-.04-.02-.11,0-.06,0-.17.07-.29Z"/>
    <path class="cls-12" d="M4.98,7.81h.34c.05.01.1.03.15.04.03.01.07.02.1.03.16.05.3.13.38.24.08.1.08.22.08.28,0,.04-.01.07-.02.09,0,0,0,0,0-.01,0-.02,0-.05,0-.08,0-.06-.03-.17-.11-.25-.07-.09-.21-.14-.36-.18-.14-.03-.3-.06-.46-.13-.01,0-.03-.01-.05-.02-.02,0-.04-.02-.05-.03Z"/>
    <path class="cls-2" d="M6.15,8.49s.03.02.08.04c.03,0,.05.03.09.03.02,0,.04,0,.06,0h.06s.04,0,.07-.02c.02,0,.04-.02.07-.03.02-.02.04-.03.06-.04.02-.02.04-.04.05-.05l.03-.04s0-.02.01-.03c0-.01,0-.03,0-.04,0-.01,0-.03,0-.04,0-.05,0-.11-.04-.15-.03-.05-.07-.08-.12-.09-.05,0-.1,0-.14.04-.04.03-.05.07-.05.12,0,.02.01.04.03.05h0s0,0,0,.01c0,0,.01,0,.01,0,0,0,.01,0,.02,0,.04,0,.08,0,.09-.04.02-.03,0-.06,0-.07-.02-.02-.04-.02-.06-.02-.01,0-.02,0-.02,0,0,0,0,0,.02-.01,0,0,.02,0,.03,0,.01,0,.03,0,.04.01.01.01.03.02.03.04,0,.02,0,.05,0,.06-.01.04-.07.08-.13.07-.01,0-.03,0-.05-.01,0,0-.01,0-.02-.01,0,0,0,0,0,0h0s-.04-.06-.05-.09c0-.03,0-.07,0-.1,0-.02.02-.04.02-.05,0,0,0,0,.02-.02l.02-.02c.05-.05.13-.08.21-.06.08.01.14.06.18.12.04.06.06.14.05.21,0,.02,0,.04,0,.05,0,.02,0,.04-.02.05,0,.02-.02.04-.03.05l-.03.04s-.05.05-.07.07c-.03.02-.05.03-.08.04-.03,0-.05.02-.08.03-.03,0-.06,0-.08,0-.03,0-.05,0-.07,0-.02,0-.04-.01-.06-.02-.04-.01-.07-.04-.09-.04-.02-.02-.04-.04-.05-.04,0-.01-.02-.02-.02-.02Z"/>
    <path class="cls-59" d="M2.54,8.49s-.03.02-.08.04c-.03,0-.05.03-.09.03-.02,0-.04,0-.06,0h-.06s-.04,0-.07-.02c-.02,0-.04-.02-.07-.03-.02-.02-.04-.03-.06-.04-.02-.02-.04-.04-.05-.05l-.03-.04s0-.02-.01-.03c0-.01,0-.03,0-.04,0-.01,0-.03,0-.04,0-.05.01-.11.04-.15.03-.05.08-.08.12-.09.05,0,.1,0,.14.04.04.03.05.07.05.12,0,.02-.01.04-.03.05h0s0,0,0,.01c0,0-.01,0-.01,0,0,0-.01,0-.02,0-.04,0-.08,0-.09-.04-.02-.03,0-.06,0-.07.02-.02.04-.02.06-.02.01,0,.02,0,.02,0,0,0,0,0-.02-.01,0,0-.02,0-.03,0-.02,0-.03,0-.04.01-.01.01-.03.02-.03.04,0,.02,0,.05,0,.06.01.04.07.08.13.07.01,0,.03,0,.05-.01,0,0,.01,0,.02-.01,0,0,0,0,0,0h0s.04-.06.05-.09c0-.03,0-.07,0-.1,0-.02-.02-.04-.02-.05,0,0,0,0-.02-.02l-.02-.02c-.05-.05-.13-.08-.2-.06-.08.01-.14.06-.18.12-.04.06-.06.14-.05.21,0,.02,0,.04,0,.05,0,.02,0,.04.02.05,0,.02.02.04.03.05l.03.04s.05.05.07.07c.03.02.05.03.08.04.03,0,.06.02.08.03.03,0,.05,0,.08,0,.03,0,.05,0,.07,0,.02,0,.04-.01.06-.02.04-.01.07-.04.09-.04.02-.02.04-.04.05-.04,0-.01.02-.02.02-.02Z"/>
    <path class="cls-82" d="M1.79,8.2s0-.02,0-.06c0-.02.01-.04.02-.07.01-.02.03-.05.05-.08.02-.03.06-.05.11-.07.05-.02.1-.03.15-.03.1,0,.18.02.17.02-.06-.02-.14-.01-.22.01-.08.02-.14.07-.17.12-.07.09-.07.17-.09.17Z"/>
    <path class="cls-105" d="M6.89,8.21s0-.02,0-.06c0-.02-.01-.04-.02-.07-.01-.03-.03-.05-.05-.08-.02-.03-.06-.05-.11-.07-.05-.02-.1-.03-.15-.03-.1,0-.18.02-.17.02.06-.01.14-.01.22.01.08.02.14.07.18.12.07.09.07.17.09.17Z"/>
    <path class="cls-22" d="M2.21,8.8c.18.02.37-.03.54-.11.17-.08.32-.19.45-.29.12-.09.25-.15.36-.15.12,0,.21.04.26.08.03.02.05.04.06.05.01.01.02.02.02.02,0,0-.02-.04-.07-.08-.04-.05-.13-.12-.26-.13-.13-.01-.29.04-.42.12-.08.05-.15.1-.23.15,0,0-.01,0-.02,0-.04.03-.09.05-.14.08-.01,0-.02.01-.03.02,0,0-.02,0-.02.01-.07.03-.13.05-.2.08h0s-.02,0-.02,0c-.01,0-.02,0-.04,0-.01,0-.03,0-.04,0-.06,0-.12.02-.17.01-.15,0-.26-.09-.34-.18-.04-.04-.07-.09-.09-.13-.02-.04-.04-.08-.05-.11-.02-.04-.03-.08-.04-.09,0,.02.01.05.02.1,0,.04.02.07.03.12.01.05.04.1.07.15.06.1.2.22.37.25Z"/>
    <path class="cls-90" d="M6.47,8.8c-.18.02-.37-.03-.54-.11-.17-.08-.32-.19-.45-.29-.12-.09-.25-.15-.36-.15-.12,0-.21.04-.26.08-.03.02-.04.04-.06.05-.01.01-.02.02-.02.02,0,0,.02-.04.07-.08.05-.05.13-.12.26-.13.13-.01.29.04.42.12.08.05.15.1.23.15,0,0,.01,0,.02,0,.04.03.09.05.14.08.01,0,.02.01.03.02,0,0,.02,0,.02.01.07.03.13.05.2.08h0s.02,0,.03,0c.01,0,.02,0,.04,0,.01,0,.03,0,.04,0,.06,0,.11.02.17.01.15,0,.26-.09.33-.18.04-.04.07-.09.09-.13.02-.04.04-.08.05-.11.02-.04.03-.08.04-.09,0,.02-.01.05-.02.1,0,.04-.02.07-.03.12-.01.05-.04.1-.07.15-.06.1-.2.22-.37.25Z"/>
    <path class="cls-24" d="M3.8,8.41s0,0,0,0c0,0,0,0,0,0,0,0-.01-.01-.02-.02,0,0,0,0,0,0,0,0-.01-.02-.02-.02,0,0-.01-.02-.02-.02-.01,0-.02-.01-.03-.02h-.03s0,0,0,0c-.02,0-.04-.02-.06-.02-.07,0-.16.02-.24.07-.04.03-.09.06-.13.08,0,0,0,0,0,0-.03.02-.05.03-.08.04,0,0-.01,0-.02.01,0,0,0,0-.01,0h.02c.1-.04.39-.16.4-.17s.03,0,.04,0c.01,0,.03,0,.04,0,.01,0,.03,0,.04,0h0s.02.01.02.01c0,0,.01,0,.02.01,0,0,0,0,.01.02,0,0,.01.01.01.02.02.03.03.06.03.09,0,.03-.01.06-.03.08-.02.02-.05.03-.08.02-.03,0-.05-.02-.06-.04,0,0,0-.02,0-.04h0s0,0,0,0c0,0,0,0,0,0,0,0,0,0,0-.01.02-.01.04-.02.06,0,.01,0,.02.03.02.04,0,.02-.01.02-.02.02h0s0,0,0,0c0,0,0,0,.02,0,0,0,.01,0,.01-.01,0-.01,0-.02,0-.03,0-.01-.01-.02-.02-.03-.02-.02-.05-.02-.08,0,0,0-.01.01-.02.02h0s0,.01,0,.02h0s0,.04,0,.06c0,.02.02.04.03.05,0,0,.02.02.03.02t.01,0h.01s.09,0,.12-.03c.04-.03.05-.07.05-.11,0-.04-.01-.07-.03-.11Z"/>
    <path class="cls-102" d="M4.86,8.41s0,0,0,0c0,0,0,0,0,0,0,0,.01-.01.02-.02,0,0,0,0,0,0,0,0,.01-.02.02-.02,0,0,.01-.02.02-.02.01,0,.02-.01.03-.02h.03s0,0,0,0c.02,0,.04-.02.06-.02.08,0,.16.02.24.07.04.03.08.06.13.08,0,0,0,0,0,0,.03.02.05.03.08.04,0,0,.01,0,.02.01,0,0,0,0,.01,0h-.02c-.1-.04-.39-.16-.4-.17-.01,0-.03,0-.04,0-.02,0-.03,0-.04,0-.01,0-.03,0-.04,0h0s-.02.01-.02.01c0,0,0,0-.02.01s-.01,0-.01.02c0,0-.01.01-.01.02-.02.03-.03.06-.03.09,0,.03.01.06.03.08.02.02.05.03.08.02.03,0,.05-.02.06-.04,0,0,0-.02,0-.04h0s0,0,0,0c0,0,0,0,0,0,0,0,0,0,0-.01-.01-.01-.04-.02-.06,0-.01,0-.02.03-.02.04,0,.02.01.02.02.02h0s0,0,0,0c0,0,0,0-.02,0,0,0,0,0-.01-.01,0-.01,0-.02,0-.03,0-.01.01-.02.02-.03.02-.02.05-.02.08,0,0,0,.01.01.02.02h0s0,.01,0,.02h0s0,.04,0,.06c0,.02-.02.04-.03.05,0,0-.02.02-.03.02t-.01,0h-.01s-.08,0-.12-.03c-.04-.03-.05-.07-.05-.11,0-.04.01-.07.03-.11Z"/>
    <path class="cls-27" d="M1.07,8.18c-.06.02-.1.08-.07.15.08.18.45-.16.97.46-.19-.33-.62-.73-.9-.62Z"/>
    <path class="cls-83" d="M1.51,7.97s.05-.05.09-.03c.09.05-.12.23.18.56-.17-.13-.35-.39-.27-.53Z"/>
    <path class="cls-48" d="M7.63,8.18c.06.02.1.08.07.15-.08.18-.45-.16-.97.46.19-.33.62-.73.9-.62Z"/>
    <path class="cls-70" d="M7.19,7.97s-.05-.05-.09-.03c-.09.05.12.23-.18.56.17-.13.35-.39.27-.53Z"/>
    <path class="cls-77" d="M4.7.76c.02.05,0,.11-.04.13-.02.01-.04.02-.06.02-.02,0-.03-.01-.04-.02,0,0-.02-.02-.02-.03,0-.01,0-.02,0-.03,0,0,0-.01,0-.02,0,0,0,0,0,.02,0,.01,0,.03.03.05.02,0,.05.01.07,0,.02-.02.03-.06.01-.09,0,0,0-.01-.01-.02,0,0,0,0-.01,0h0s0,0,0,0c-.02,0-.04-.01-.06-.01-.04,0-.08.02-.1.07-.02.04-.02.09,0,.13,0,0,0,0,0,.01,0,.02.02.03.04.04h-.11s-.01-.02-.01-.03c0,0,0-.01,0-.02-.02-.06-.01-.13.02-.18v-.02s.02-.01.03-.02c0,0,.02-.02.04-.03.03-.01.06-.02.09-.02.03,0,.06,0,.08.03h0s0,.01,0,.01c0,0,0,0,.01.01.01.01.02.03.02.04Z"/>
    <path class="cls-66" d="M4.97.75s0,.05,0,.08c0,.03-.01.05-.02.08,0,.01-.01.02-.02.03,0,.01-.01.03-.02.04h-.1s0,0,.02-.01l.03-.03s.02-.04.04-.06c0-.02.02-.04.03-.07,0-.02,0-.04,0-.07v-.06s0-.04-.02-.06c0-.02-.01-.04-.02-.05-.01-.04-.04-.06-.05-.08-.02-.03-.04-.05-.05-.06,0,0,0,0,.02,0,0,.01.03.02.05.04.02.02.04.04.06.08,0,.02.02.03.03.05,0,.02.02.04.02.07,0,.02,0,.05.01.07Z"/>
    <path class="cls-45" d="M3.82.68s0,.04,0,.06c0,.02,0,.04.01.07,0,.02.01.05.02.07.01.02.03.04.04.06l.03.03s0,0,.01.01h-.1s-.02-.03-.02-.04c0-.01,0-.02-.01-.03-.01-.03-.02-.05-.02-.08,0-.03,0-.06,0-.08,0-.03,0-.05,0-.07,0-.02.01-.04.02-.07,0-.02.02-.04.03-.05.02-.03.05-.05.06-.08.02-.02.04-.03.05-.04,0,0,0,0,.02,0,0,0-.03.03-.05.06-.01.02-.04.04-.04.08,0,.02-.02.03-.02.05,0,.02,0,.04-.01.06Z"/>
    <path class="cls-76" d="M4.34.94s0,.01,0,.02c0,0,0,.02-.02.03h-.11s.03-.03.04-.04c0,0,0,0,0-.01.02-.04.02-.09,0-.13-.02-.04-.05-.06-.09-.07-.02,0-.04,0-.06.01h0s0,0,0,0c0,0-.01,0-.01,0,0,0-.01,0-.01.02-.01.03,0,.07.01.09.02.02.05.02.07,0,.03-.02.03-.03.03-.05,0,0,0-.01,0-.02,0,0,0,0,0,.02,0,0,0,.01,0,.03,0,.01-.01.02-.02.03-.02,0-.03.02-.05.02-.02,0-.05,0-.06-.02-.03-.02-.05-.08-.04-.13,0-.01.01-.03.02-.04,0,0,0,0,.01-.01s0,0,0,0h0s.05-.03.09-.03c.03,0,.06,0,.09.02.01,0,.03.02.04.03,0,0,0,0,.02.02v.02s.05.12.03.18Z"/>
    <path class="cls-60" d="M4.2.52s.09.09.13.15c.03.04.04,0,.04,0l.03-.03c.04-.05.07-.09.11-.12.12-.1.26-.09.25-.12,0-.01-.03-.02-.08-.02-.05,0-.13.02-.2.07-.04.03-.08.08-.11.14-.03-.06-.07-.11-.11-.13-.04-.03-.08-.05-.11-.06-.04,0-.07-.02-.1-.02-.06,0-.09,0-.09.01,0,.03.11.03.24.12Z"/>
    <path class="cls-67" d="M6.26.75s-.06-.09-.09-.15c0-.02-.01-.03-.01-.03,0-.02-.02.03-.02.03l-.02.03c-.02.05-.05.09-.07.12-.08.1-.17.09-.17.12,0,.01.02.02.05.02.03,0,.09-.02.14-.07.03-.03.06-.08.08-.14.02.06.05.11.07.13.02.03.05.05.08.06.03,0,.05.02.07.02.04,0,.06,0,.06-.01,0-.03-.08-.03-.16-.12Z"/>
    <path class="cls-14" d="M2.68.75s-.06-.09-.09-.15c0-.02-.01-.03-.01-.03,0-.02-.02.03-.02.03l-.02.03c-.02.05-.05.09-.07.12-.08.1-.18.09-.17.12,0,.01.02.02.05.02.03,0,.09-.02.14-.07.03-.03.06-.08.08-.14.02.06.05.11.07.13.02.03.05.05.08.06.03,0,.05.02.07.02.04,0,.06,0,.06-.01,0-.03-.08-.03-.16-.12Z"/>
    <path class="cls-52" d="M5.97.68c-.08.11-.22.19-.38.23-.04.01-.07.02-.11.03l-.14.04h-.34s.04-.02.05-.03c.01,0,.03-.01.05-.02.16-.07.32-.1.46-.13.15-.03.28-.09.35-.17.08-.09.11-.18.11-.25,0-.03,0-.06,0-.08,0-.01,0-.03,0-.03,0,0,.01.04.02.11,0,.07,0,.17-.07.29Z"/>
    <path class="cls-68" d="M3.72.99h-.34c-.05-.01-.1-.03-.15-.04-.03-.01-.07-.02-.1-.03-.16-.05-.3-.13-.38-.24-.08-.1-.08-.22-.08-.28,0-.04.01-.07.02-.09,0,0,0,0,0,.01,0,.02,0,.04,0,.08,0,.07.03.17.11.25.07.09.21.14.36.18.14.03.3.06.46.13.01,0,.03.01.05.02.02,0,.04.02.05.03Z"/>
    <path class="cls-88" d="M2.55.31s-.03-.02-.08-.04c-.03,0-.05-.03-.09-.03-.02,0-.04,0-.06,0-.02,0-.04,0-.06,0-.02,0-.04,0-.07.01-.02,0-.04.02-.07.03-.02.01-.04.03-.06.04-.02.02-.04.04-.05.06l-.03.04s0,.02-.01.03c0,.01,0,.03,0,.04,0,.01,0,.03,0,.04,0,.05,0,.11.04.15.03.05.07.08.12.09.05,0,.1,0,.14-.03.04-.03.05-.07.05-.12,0-.02-.01-.04-.03-.06h0s0,0,0-.01c0,0-.01,0-.01,0,0,0-.01,0-.02,0-.04,0-.08,0-.09.04-.02.03,0,.06,0,.08.02.02.04.02.06.01.01,0,.02,0,.02,0,0,0,0,0-.02.01,0,0-.02,0-.03,0-.01,0-.03,0-.04-.01-.01-.01-.03-.02-.03-.04,0-.02,0-.05,0-.07.01-.04.07-.08.13-.07.01,0,.03,0,.05.01,0,0,.01,0,.02.01,0,0,0,0,0,0h0s.04.06.05.09c0,.03,0,.07,0,.1,0,.02-.02.04-.02.05,0,0,0,0-.02.02l-.02.02c-.05.05-.13.08-.21.06-.08-.01-.14-.06-.18-.12-.04-.06-.06-.14-.05-.21,0-.02,0-.04,0-.05,0-.02,0-.04.02-.05,0-.02.02-.04.03-.05l.03-.04s.05-.04.07-.07c.03-.02.05-.03.08-.04.03,0,.05-.02.08-.03.03,0,.06,0,.08,0,.03,0,.05,0,.07,0,.02,0,.04.01.06.02.04.01.07.04.09.05.02.02.04.04.05.04,0,.01.02.02.02.02Z"/>
    <path class="cls-43" d="M6.16.31s.03-.02.08-.04c.03,0,.05-.03.09-.03.02,0,.04,0,.06,0,.02,0,.04,0,.06,0,.02,0,.04,0,.07.01.02,0,.04.02.07.03.02.01.04.03.06.04.02.02.04.04.05.06l.03.04s0,.02.01.03c0,.01,0,.03,0,.04,0,.01,0,.03,0,.04,0,.05-.01.11-.04.15-.03.05-.08.08-.12.09-.05,0-.1,0-.14-.03-.04-.03-.05-.07-.05-.12,0-.02.01-.04.03-.06h0s0,0,0-.01c0,0,.01,0,.01,0,0,0,.01,0,.02,0,.04,0,.08,0,.09.04.02.03,0,.06,0,.08-.02.02-.04.02-.06.01-.01,0-.02,0-.02,0,0,0,0,0,.02.01,0,0,.02,0,.03,0,.02,0,.03,0,.04-.01.01-.01.03-.02.03-.04,0-.02,0-.05,0-.07-.01-.04-.07-.08-.13-.07-.01,0-.03,0-.05.01,0,0-.01,0-.02.01,0,0,0,0,0,0h0s-.04.06-.05.09c0,.03,0,.07,0,.1,0,.02.02.04.02.05,0,0,0,0,.02.02l.02.02c.05.05.13.08.2.06.08-.01.14-.06.18-.12.04-.06.06-.14.05-.21,0-.02,0-.04,0-.05,0-.02,0-.04-.02-.05,0-.02-.02-.04-.03-.05l-.03-.04s-.05-.04-.07-.07c-.03-.02-.05-.03-.08-.04-.03,0-.06-.02-.08-.03-.03,0-.05,0-.08,0-.03,0-.05,0-.07,0-.02,0-.04.01-.06.02-.04.01-.07.04-.09.05-.02.02-.04.04-.05.04,0,.01-.02.02-.02.02Z"/>
    <path class="cls-99" d="M6.91.6s0,.02,0,.06c0,.02-.01.04-.02.07-.01.02-.03.05-.05.08-.02.03-.06.05-.11.08-.05.02-.1.03-.15.03-.1,0-.18-.02-.17-.02.06.01.14.01.22-.01.08-.02.14-.07.17-.12.07-.09.07-.17.09-.17Z"/>
    <path class="cls-1" d="M1.8.59s0,.02,0,.06c0,.02.01.04.02.07.01.02.03.05.05.08.02.03.06.05.11.08.05.02.1.03.15.03.1,0,.18-.02.17-.02-.06.01-.14.01-.22-.01-.08-.02-.14-.07-.18-.12-.07-.09-.07-.17-.09-.17Z"/>
    <path class="cls-9" d="M6.48,0c-.18-.02-.37.03-.54.11-.17.08-.32.19-.45.29-.12.09-.25.15-.36.15-.12,0-.21-.04-.26-.08-.03-.02-.05-.04-.06-.05-.01-.01-.02-.02-.02-.02,0,0,.02.04.07.08.04.05.13.12.26.13.13.01.29-.04.42-.12.08-.05.15-.1.23-.15,0,0,.01,0,.02,0,.04-.03.09-.05.14-.08.01,0,.02-.01.03-.02,0,0,.02,0,.02-.01.07-.03.13-.05.2-.08h0s.02,0,.02,0c.01,0,.02,0,.04,0,.01,0,.03,0,.04,0,.06-.01.12-.02.17-.01.15,0,.26.09.34.18.04.04.07.09.09.13.02.04.04.08.05.11.02.04.03.08.04.09,0-.01-.01-.05-.02-.1,0-.04-.02-.08-.03-.12-.01-.05-.04-.1-.07-.15-.06-.1-.2-.22-.37-.25Z"/>
    <path class="cls-79" d="M2.23,0c.18-.02.37.03.54.11.17.08.32.19.45.29.12.09.25.15.36.15.12,0,.21-.04.26-.08.03-.02.04-.04.06-.05.01-.01.02-.02.02-.02,0,0-.02.04-.07.08-.04.05-.13.12-.26.13-.13.01-.29-.04-.42-.12-.08-.05-.15-.1-.23-.15,0,0-.01,0-.02,0-.04-.03-.09-.05-.14-.08-.01,0-.02-.01-.03-.02,0,0-.02,0-.02-.01-.07-.03-.13-.05-.2-.08h0s-.02,0-.03,0c-.01,0-.02,0-.04,0-.01,0-.03,0-.04,0-.06-.01-.11-.02-.17-.01-.15,0-.26.09-.33.18-.04.04-.07.09-.09.13-.02.04-.04.08-.05.11-.02.04-.03.08-.04.09,0-.01.01-.05.02-.1,0-.04.02-.08.03-.12.01-.05.04-.1.07-.15.06-.1.2-.22.37-.25Z"/>
    <path class="cls-36" d="M4.9.39s0,0,0,0c0,0,0,0,0,0,0,0,.01.01.02.02,0,0,0,0,0,0,0,0,.01.01.02.02,0,0,.01.02.02.02.01,0,.02.01.03.02h.03s0,0,0,0c.02,0,.04.02.06.02.07,0,.16-.02.24-.07.04-.03.09-.06.13-.08,0,0,0,0,0,0,.03-.02.05-.03.08-.04,0,0,.01,0,.02-.01,0,0,0,0,.01,0h-.02c-.1.04-.39.16-.4.17s-.03,0-.04,0c-.01,0-.03,0-.04,0-.01,0-.03,0-.04-.01h0s-.02-.01-.02-.01c0,0-.01,0-.02-.01,0,0,0,0-.01-.02,0,0-.01-.01-.01-.02-.02-.03-.03-.06-.03-.09,0-.03.01-.06.03-.08.02-.02.05-.03.08-.02.03,0,.05.02.06.04,0,0,0,.02,0,.04h0s0,0,0,0c0,0,0,0,0,0,0,0,0,0,0,.01-.02.01-.04.02-.06,0-.01,0-.02-.03-.02-.04,0-.02.01-.02.02-.02,0,0,0,0,0,0,0,0,0,0,0,0,0,0,0,0-.02,0,0,0-.01,0-.01.01,0,.01,0,.02,0,.03,0,.01.01.02.02.03.02.02.05.02.08,0,0,0,.01-.01.02-.02h0s0-.01,0-.02h0s0-.04,0-.06c0-.02-.02-.04-.03-.05,0,0-.02-.01-.03-.02t-.01,0h-.01s-.08,0-.12.03c-.04.03-.05.07-.05.11,0,.04.01.07.03.11Z"/>
    <path class="cls-29" d="M3.84.39s0,0,0,0c0,0,0,0,0,0,0,0-.01.01-.02.02,0,0,0,0,0,0,0,0-.01.01-.02.02,0,0-.01.02-.02.02-.01,0-.02.01-.03.02h-.03s0,0,0,0c-.02,0-.04.02-.06.02-.08,0-.16-.02-.24-.07-.04-.03-.09-.06-.13-.08,0,0,0,0,0,0-.03-.02-.05-.03-.08-.04,0,0-.01,0-.02-.01,0,0,0,0-.01,0h.02c.1.04.39.16.4.17.01,0,.03,0,.04,0,.02,0,.03,0,.04,0,.01,0,.03,0,.04-.01h0s.02-.01.02-.01c0,0,0,0,.02-.01,0,0,.01,0,.01-.02,0,0,.01-.01.01-.02.02-.03.03-.06.03-.09,0-.03-.01-.06-.03-.08-.02-.02-.05-.03-.08-.02-.03,0-.05.02-.06.04,0,0,0,.02,0,.04h0s0,0,0,0c0,0,0,0,0,0,0,0,0,0,0,.01.01.01.04.02.06,0,.01,0,.02-.03.02-.04,0-.02-.01-.02-.02-.02,0,0,0,0,0,0,0,0,0,0,0,0,0,0,0,0,.02,0,0,0,0,0,.01.01,0,.01,0,.02,0,.03,0,.01-.01.02-.02.03-.02.02-.05.02-.08,0,0,0-.01-.01-.02-.02h0s0-.01,0-.02h0s0-.04,0-.06c0-.02.02-.04.03-.05,0,0,.02-.01.03-.02t.01,0h.01s.08,0,.12.03c.04.03.05.07.05.11,0,.04-.01.07-.03.11Z"/>
    <path class="cls-54" d="M7.63.62c.06-.02.1-.08.07-.15-.08-.18-.45.16-.97-.46.19.33.62.73.9.62Z"/>
    <path class="cls-25" d="M7.19.83s-.05.05-.09.03c-.09-.06.12-.23-.18-.56.17.13.35.39.27.53Z"/>
    <path class="cls-53" d="M1.07.62c-.06-.02-.1-.08-.07-.15.08-.18.45.16.97-.46-.19.33-.62.73-.9.62Z"/>
    <path class="cls-64" d="M1.51.83s.05.05.09.03c.09-.06-.12-.23.18-.56-.17.13-.35.39-.27.53Z"/>
    <path class="cls-103" d="M1.1.8c-.07.01-.16,0-.26-.02-.06-.01-.04.03-.04.03v.05c.02.08.02.15.01.2-.02.2-.15.32-.12.34,0,0,.04,0,.09-.06.04-.05.1-.13.12-.25.01-.07,0-.15-.03-.23.08.02.16.03.21.02.06,0,.11-.03.16-.04.04-.03.08-.05.11-.07.05-.05.08-.08.07-.09-.02-.03-.13.08-.32.11Z"/>
    <path class="cls-51" d="M.17.57s0-.08.05-.09c.12-.03.08.29.6.34-.24.02-.61-.06-.65-.24Z"/>
    <path class="cls-6" d="M.22.88s0,.05.02.06c.06.03.08-.15.36-.11-.13-.04-.33-.04-.38.06Z"/>
    <path class="cls-11" d="M.76.12s-.08-.02-.11.03c-.06.11.27.15.18.67.08-.23.1-.61-.07-.69Z"/>
    <path class="cls-80" d="M1.04.25s.04,0,.05.03c.01.07-.16.04-.2.32,0-.13.04-.33.15-.35Z"/>
    <path class="cls-20" d="M7.65.8c.07.01.16,0,.26-.02.06-.01.04.03.04.03v.05c-.02.08-.02.15-.01.2.02.2.15.32.12.34,0,0-.04,0-.09-.06-.04-.05-.1-.13-.12-.25-.01-.07,0-.15.03-.23-.08.02-.16.03-.21.02-.06,0-.11-.03-.16-.04-.04-.03-.08-.05-.11-.07-.05-.05-.08-.08-.07-.09.02-.03.13.08.32.11Z"/>
    <path class="cls-56" d="M8.58.57s0-.08-.05-.09c-.12-.03-.08.29-.6.34.24.02.61-.06.65-.24Z"/>
    <path class="cls-92" d="M8.53.88s0,.05-.02.06c-.06.03-.08-.15-.36-.11.13-.04.33-.04.38.06Z"/>
    <path class="cls-89" d="M8,.12s.08-.02.11.03c.06.11-.27.15-.18.67-.08-.23-.1-.61.07-.69Z"/>
    <path class="cls-87" d="M7.71.25s-.04,0-.05.03c-.01.07.16.04.2.32,0-.13-.05-.33-.15-.35Z"/>
    <path class="cls-72" d="M7.65,7.97c.07-.02.16-.02.26,0,.06,0,.04-.04.04-.04v-.05c-.03-.08-.04-.15-.04-.2,0-.2.12-.33.09-.35-.01,0-.04.01-.08.06-.04.05-.09.14-.1.26,0,.07.01.15.05.23-.08-.01-.16-.02-.21,0-.06,0-.11.04-.15.06-.04.03-.08.05-.1.08-.05.05-.07.09-.06.1.03.03.12-.09.31-.14Z"/>
    <path class="cls-35" d="M8.6,8.11s0,.08-.04.1c-.12.04-.11-.29-.63-.28.24-.04.61,0,.67.18Z"/>
    <path class="cls-98" d="M8.52,7.81s0-.05-.02-.05c-.07-.02-.06.15-.35.14.13.03.33.01.37-.09Z"/>
    <path class="cls-7" d="M8.06,8.61s.08,0,.1-.04c.04-.12-.28-.13-.24-.65-.06.24-.05.61.13.68Z"/>
    <path class="cls-33" d="M7.76,8.51s-.04,0-.05-.03c-.02-.07.16-.05.17-.34.02.13-.01.34-.12.36Z"/>
    <path class="cls-23" d="M1.04,7.97c-.07-.02-.16-.02-.26,0-.06,0-.04-.04-.04-.04v-.05c.03-.08.04-.15.04-.2,0-.2-.12-.33-.09-.35.01,0,.04.01.08.06.04.05.09.14.1.26,0,.07-.01.15-.05.23.08-.01.16-.02.21,0,.06,0,.11.04.15.06.04.03.08.05.1.08.05.05.07.09.06.1-.03.03-.12-.09-.31-.14Z"/>
    <path class="cls-47" d="M.1,8.11s0,.08.04.1c.12.04.11-.29.63-.28-.24-.04-.61,0-.67.18Z"/>
    <path class="cls-94" d="M.17,7.81s0-.05.02-.05c.07-.02.06.15.35.14-.13.03-.33.01-.37-.09Z"/>
    <path class="cls-18" d="M.64,8.61s-.08,0-.1-.04c-.04-.12.28-.13.24-.65.06.24.05.61-.13.68Z"/>
    <path class="cls-55" d="M.93,8.51s.04,0,.05-.03c.02-.07-.16-.05-.17-.34-.02.13.01.34.12.36Z"/>
    <path class="cls-69" d="M.76,3.99c.05-.02.11,0,.13.04.01.02.02.04.02.06,0,.02-.01.03-.02.04,0,0-.02.02-.03.02-.01,0-.02,0-.03,0,0,0-.01,0-.02,0,0,0,0,0,.02,0,.01,0,.03,0,.05-.03,0-.02.01-.05,0-.07-.02-.02-.06-.03-.09-.01,0,0-.01,0-.02.01,0,0,0,0,0,.01,0,0,0,0,0,0h0s-.01.04-.01.06c0,.04.02.08.07.1.04.02.09.02.13,0,0,0,0,0,.01,0,.02,0,.03-.02.04-.04v.11s-.02.01-.03.01c0,0-.01,0-.02,0-.06.02-.13.01-.18-.02h-.02s-.01-.02-.02-.03c0,0-.02-.02-.03-.04-.01-.03-.02-.06-.02-.09,0-.03,0-.06.03-.08h0s0-.01,0-.02c0,0,0,0,.01-.01.01-.01.03-.02.04-.02Z"/>
    <path class="cls-4" d="M.75,3.72s.05,0,.08,0c.03,0,.05.01.08.02.01,0,.02.01.03.02.01,0,.03.01.04.02v.1s0,0-.01-.02l-.03-.03s-.04-.02-.06-.04c-.02,0-.04-.02-.07-.03-.02,0-.04,0-.07,0h-.06s-.04,0-.06.01c-.02,0-.04.01-.05.02-.04.01-.06.04-.08.05-.03.02-.05.04-.06.05,0,0,0,0,0-.02.01,0,.02-.03.04-.05.02-.02.04-.04.08-.06.02,0,.03-.02.05-.03.02,0,.04-.01.07-.02.02,0,.05,0,.07-.01Z"/>
    <path class="cls-5" d="M.68,4.88s.04,0,.06,0c.02,0,.04,0,.07-.01.02,0,.05-.02.07-.02.02-.02.04-.03.06-.04l.03-.03s0,0,.01-.01v.1s-.03.02-.04.02c-.01,0-.02,0-.03.01-.03.01-.05.02-.08.02-.03,0-.06,0-.08,0-.03,0-.05,0-.07,0-.02,0-.04-.02-.07-.02-.02,0-.04-.02-.05-.03-.03-.02-.05-.05-.08-.06-.02-.02-.03-.04-.04-.05,0,0,0,0,0-.01,0,0,.03.03.06.05.02.01.04.04.08.04.02,0,.03.02.05.02.02,0,.04,0,.06.01Z"/>
    <path class="cls-8" d="M.94,4.35s.01,0,.02,0c0,0,.02,0,.03.02v.11s-.03-.03-.04-.04c0,0,0,0-.01,0-.04-.02-.09-.02-.13,0-.04.02-.06.05-.07.09,0,.02,0,.04.01.06h0s0,.01,0,.01c0,0,0,.01,0,.01,0,0,0,.01.02.02.03.01.07,0,.09-.02.02-.02.02-.05,0-.07-.02-.03-.03-.03-.05-.03,0,0-.01,0-.02,0,0,0,0,0,.02,0,0,0,.01,0,.03,0,.01,0,.02.01.03.02,0,.02.02.03.02.05,0,.02,0,.04-.02.06-.02.03-.08.05-.13.04-.01,0-.03-.01-.04-.02,0,0,0,0-.01-.01,0,0,0,0,0,0h0s-.02-.06-.03-.1c0-.03,0-.06.02-.09,0-.01.02-.03.03-.04,0,0,0,0,.02-.02h.02s.12-.05.18-.03Z"/>
    <path class="cls-49" d="M.52,4.49s.09-.09.15-.13c.04-.03,0-.04,0-.04l-.03-.03c-.05-.04-.09-.07-.12-.11-.1-.12-.09-.26-.12-.25-.01,0-.02.03-.02.08,0,.05.02.13.07.2.03.04.08.08.14.11-.06.03-.11.07-.13.1-.03.04-.05.08-.06.11,0,.04-.02.07-.02.1,0,.05,0,.09.01.09.03,0,.03-.11.12-.24Z"/>
    <path class="cls-81" d="M.75,2.43s-.09.06-.15.09c-.02,0-.03.01-.03.01-.02,0,.03.02.03.02l.03.02c.05.02.09.05.12.07.1.08.09.17.12.17.01,0,.02-.02.02-.05,0-.03-.02-.09-.07-.14-.03-.03-.08-.06-.14-.08.06-.02.11-.05.13-.07.03-.02.05-.05.06-.08,0-.02.02-.05.02-.07,0-.04,0-.06-.01-.06-.03,0-.03.08-.12.16Z"/>
    <path class="cls-38" d="M.75,6.01s-.09.06-.15.09c-.02,0-.03.01-.03.01-.02,0,.03.02.03.02l.03.02c.05.02.09.05.12.07.1.08.09.17.12.17.01,0,.02-.02.02-.05,0-.03-.02-.09-.07-.14-.03-.03-.08-.06-.14-.08.06-.02.11-.05.13-.07.03-.02.05-.05.06-.08,0-.03.02-.05.02-.07,0-.04,0-.06-.01-.06-.03,0-.03.08-.12.16Z"/>
    <path class="cls-3" d="M.68,2.72c.11.08.19.22.23.37.01.04.02.07.03.11l.04.14v.34s-.02-.04-.03-.05c0-.02-.01-.03-.02-.05-.07-.16-.1-.32-.13-.46-.03-.15-.09-.28-.17-.35-.09-.08-.18-.11-.25-.11-.03,0-.06,0-.08,0-.01,0-.03,0-.03,0,0,0,.04-.01.11-.02.07,0,.17,0,.29.07Z"/>
    <path class="cls-46" d="M.99,4.97v.34s-.03.1-.04.15c-.01.03-.02.07-.03.1-.05.16-.13.3-.24.38-.1.08-.22.08-.28.08-.04,0-.07-.01-.09-.02,0,0,0,0,.01,0,.02,0,.04,0,.08,0,.07,0,.17-.03.25-.11.09-.07.14-.21.18-.36.03-.14.06-.3.13-.46,0-.02.01-.03.02-.05,0-.02.02-.04.03-.05Z"/>
    <path class="cls-74" d="M.31,6.15s-.02.03-.04.08c0,.03-.03.05-.03.09,0,.02,0,.04,0,.06,0,.02,0,.04,0,.06,0,.02,0,.04.01.07,0,.02.02.04.03.07.01.02.03.05.04.06.02.02.04.04.06.05l.04.03s.02,0,.03.01c.01,0,.03,0,.04,0,.01,0,.03,0,.04,0,.05,0,.11,0,.15-.04.05-.03.08-.07.09-.12,0-.05,0-.1-.03-.14-.03-.04-.07-.05-.12-.05-.02,0-.04.01-.06.03h0s0,0,0,0c0,0,0,.01,0,.01,0,0,0,.01,0,.02,0,.04,0,.08.04.09.03.02.06,0,.08,0,.02-.02.02-.04.01-.06,0-.01,0-.02,0-.02,0,0,0,0,.01.02,0,0,0,.02,0,.03,0,.01,0,.03-.01.04-.01.01-.02.03-.04.03-.02,0-.05,0-.07,0-.04-.01-.08-.07-.07-.13,0-.01,0-.03.01-.05,0,0,0-.01.01-.02,0,0,0,0,0-.01h0s.05-.05.08-.06c.03,0,.07,0,.1,0,.02,0,.04.02.05.02,0,0,0,0,.02.02l.02.02c.05.05.08.13.06.2-.01.08-.06.14-.12.18-.06.04-.14.06-.21.05-.02,0-.04,0-.05,0-.02,0-.04,0-.05-.02-.02,0-.04-.02-.05-.03l-.04-.03s-.04-.05-.07-.07c-.02-.03-.03-.05-.04-.08,0-.03-.02-.06-.03-.08,0-.03,0-.05,0-.08,0-.03,0-.05,0-.07,0-.02.01-.04.02-.06.01-.04.04-.07.05-.09.02-.02.04-.04.04-.05.01,0,.02-.02.02-.02Z"/>
    <path class="cls-107" d="M.31,2.53s-.02-.03-.04-.08c0-.03-.03-.05-.03-.09,0-.02,0-.04,0-.06,0-.02,0-.04,0-.06,0-.02,0-.04.01-.07,0-.02.02-.04.03-.07.01-.02.03-.04.04-.06.02-.02.04-.04.06-.06l.04-.03s.02,0,.03-.01c.01,0,.03,0,.04-.01.01,0,.03,0,.04,0,.05,0,.11.01.15.04.05.03.08.08.09.12,0,.05,0,.1-.03.14-.03.04-.07.05-.12.05-.02,0-.04-.01-.06-.03h0s0,0,0,0c0,0,0-.01,0-.01,0,0,0-.01,0-.02,0-.04,0-.08.04-.09.03-.02.06,0,.08,0,.02.02.02.04.01.06,0,.01,0,.02,0,.02,0,0,0,0,.01-.02,0,0,0-.02,0-.03,0-.02,0-.03-.01-.04-.01-.01-.02-.03-.04-.03-.02,0-.05,0-.07,0-.04.01-.08.07-.07.13,0,.01,0,.03.01.05,0,0,0,.01.01.02,0,0,0,0,0,0h0s.05.05.08.06c.03,0,.07,0,.1,0,.02,0,.04-.02.05-.02,0,0,0,0,.02-.02l.02-.02c.05-.05.08-.13.06-.2-.01-.08-.06-.14-.12-.18-.06-.04-.14-.06-.21-.05-.02,0-.04,0-.05,0-.02,0-.04,0-.05.02-.02,0-.04.02-.05.03l-.04.03s-.04.05-.07.07c-.02.03-.03.05-.04.08,0,.03-.02.06-.03.08,0,.03,0,.05,0,.08,0,.03,0,.05,0,.07,0,.02.01.04.02.06.01.04.04.07.05.09.02.02.04.04.04.05.01.01.02.02.02.02Z"/>
    <path class="cls-21" d="M.6,1.78s.02,0,.06,0c.02,0,.04.01.07.02.02.01.05.03.08.05.03.02.05.06.08.11.02.05.03.1.03.15,0,.1-.02.18-.02.17.01-.06.01-.14-.01-.22-.02-.08-.07-.14-.12-.17-.09-.07-.17-.07-.17-.09Z"/>
    <path class="cls-97" d="M.59,6.89s.02,0,.06,0c.02,0,.04-.01.07-.02.02-.01.05-.03.08-.05.03-.02.05-.06.08-.11.02-.05.03-.1.03-.15,0-.1-.02-.18-.02-.17.01.06.01.14-.01.22-.02.08-.07.14-.12.18-.09.07-.17.07-.17.09Z"/>
    <path class="cls-10" d="M0,2.21c-.02.18.03.37.11.54.08.17.19.32.29.45.09.12.15.25.15.36,0,.12-.04.21-.08.26-.02.03-.04.04-.05.06-.01.01-.02.02-.02.02,0,0,.04-.02.08-.07.05-.04.12-.13.13-.26.01-.13-.04-.29-.12-.42-.05-.08-.1-.15-.15-.23,0,0,0-.01,0-.02-.03-.04-.05-.09-.08-.14,0-.01-.01-.02-.02-.03,0,0,0-.02-.01-.02-.03-.06-.05-.13-.08-.2h0s0-.02,0-.03c0-.01,0-.02,0-.04,0-.01,0-.03,0-.04-.01-.06-.02-.12-.01-.17,0-.15.09-.26.18-.33.04-.04.09-.07.13-.09.04-.02.08-.04.11-.05.04-.02.08-.03.09-.04-.01,0-.05.01-.1.02-.04,0-.08.02-.12.03-.05.01-.1.04-.15.07-.1.06-.22.2-.25.37Z"/>
    <path class="cls-78" d="M0,6.47c-.02-.18.03-.37.11-.54.08-.17.19-.32.29-.45.09-.12.15-.25.15-.36,0-.12-.04-.21-.08-.26-.02-.03-.04-.04-.05-.06-.01-.01-.02-.02-.02-.02,0,0,.04.02.08.07.05.04.12.13.13.26.01.13-.04.29-.12.42-.05.08-.1.15-.15.23,0,0,0,.01,0,.02-.03.04-.05.09-.08.14,0,.01-.01.02-.02.03,0,0,0,.02-.01.02-.03.06-.05.13-.08.2h0s0,.02,0,.03c0,.01,0,.02,0,.04,0,.01,0,.03,0,.04-.01.06-.02.12-.01.17,0,.15.09.26.18.33.04.04.09.07.13.08.04.02.08.04.11.05.04.02.08.03.09.04-.01,0-.05-.01-.1-.02-.04,0-.08-.02-.12-.03-.05-.01-.1-.04-.15-.07-.1-.06-.22-.2-.25-.38Z"/>
    <path class="cls-91" d="M.39,3.8s0,0,0,0c0,0,0,0,0,0,0,0,.01,0,.02-.02,0,0,0,0,0,0,0,0,.01-.01.02-.02,0,0,.02-.01.02-.02,0,0,.01-.02.02-.03v-.03s0,0,0,0c0-.02.02-.04.02-.06,0-.07-.02-.16-.07-.24-.03-.04-.06-.09-.08-.13,0,0,0,0,0,0-.02-.03-.03-.05-.04-.08,0,0,0-.01-.01-.02,0,0,0,0,0-.01v.02c.04.1.16.39.17.4,0,.01,0,.03,0,.04,0,.01,0,.03,0,.04,0,.01,0,.03-.01.04h0s0,.02,0,.02c0,0,0,.01-.01.02,0,0,0,0-.02.01,0,0-.01.01-.02.01-.03.02-.06.03-.09.02-.03,0-.06-.01-.08-.03-.02-.02-.03-.05-.02-.08,0-.03.02-.05.04-.06,0,0,.02,0,.04,0h0s0,0,0,0c0,0,0,0,0,0,0,0,0,0,.01,0,.01.02.02.04,0,.06,0,.01-.03.02-.04.02-.02,0-.02-.01-.02-.02,0,0,0,0,0,0,0,0,0,0,0,0,0,0,0,0,0,.02,0,0,0,.01.01.01.01,0,.02,0,.03,0,.01,0,.02-.01.03-.02.02-.02.02-.05,0-.08,0,0-.01-.01-.02-.02h0s0,0,0,0h0s-.03,0-.05,0c-.02,0-.04.02-.05.03,0,0-.01.02-.02.03t0,.01h0c0,.05,0,.1.03.13.03.04.07.05.11.05.04,0,.07-.01.11-.03Z"/>
    <path class="cls-84" d="M.39,4.86s0,0,0,0c0,0,0,0,0,0,0,0,.01,0,.02.02,0,0,0,0,0,0,0,0,.01.01.02.02,0,0,.02.01.02.02,0,0,.01.02.02.03v.03s0,0,0,0c0,.02.02.04.02.06,0,.07-.02.16-.07.24-.03.04-.06.09-.08.13,0,0,0,0,0,0-.02.03-.03.05-.04.08,0,0,0,.01-.01.02,0,0,0,0,0,.01v-.02c.04-.1.16-.39.17-.4,0-.01,0-.03,0-.04,0-.02,0-.03,0-.04,0-.01,0-.03-.01-.04h0s0-.02,0-.02c0,0,0,0-.01-.02,0,0,0,0-.02-.01,0,0-.01-.01-.02-.01-.03-.02-.06-.03-.09-.03-.03,0-.06.01-.08.03-.02.02-.03.05-.02.08,0,.03.02.05.04.06,0,0,.02,0,.04,0h0s0,0,0,0c0,0,0,0,0,0,0,0,0,0,.01,0,.01-.01.02-.04,0-.06,0-.01-.03-.02-.04-.02-.02,0-.02.01-.02.02,0,0,0,0,0,0,0,0,0,0,0,0,0,0,0,0,0-.02,0,0,0,0,.01-.01.01,0,.02,0,.03,0,.01,0,.02.01.03.02.02.02.02.05,0,.08,0,0-.01.01-.02.02h0s0,0,0,0h0s-.03,0-.05,0c-.02,0-.04-.02-.05-.03,0,0-.01-.02-.02-.03t0-.01h0c0-.05,0-.1.03-.13.03-.04.07-.05.11-.05.04,0,.07.01.11.03Z"/>
    <path class="cls-40" d="M.62,1.06c-.02-.06-.08-.1-.15-.07-.18.08.16.45-.46.97.33-.19.73-.62.62-.9Z"/>
    <path class="cls-19" d="M.83,1.5s.05.05.03.09c-.06.09-.23-.12-.56.18.13-.17.39-.35.53-.27Z"/>
    <path class="cls-63" d="M.62,7.63c-.02.05-.08.1-.15.07-.18-.08.16-.45-.46-.97.33.19.73.62.62.9Z"/>
    <path class="cls-32" d="M.83,7.19s.05-.05.03-.09c-.06-.09-.23.12-.56-.18.13.17.39.35.53.27Z"/>
    <path class="cls-58" d="M7.94,3.99c-.05-.02-.11,0-.13.04-.01.02-.02.04-.02.06,0,.02.01.03.02.04,0,0,.02.02.03.02.01,0,.02,0,.03,0,0,0,.01,0,.02,0,0,0,0,0-.02,0-.01,0-.03,0-.05-.03,0-.02-.01-.05,0-.07.02-.02.06-.03.09-.01,0,0,.01,0,.02.01,0,0,0,0,0,.01,0,0,0,0,0,0h0s.01.04.01.06c0,.04-.02.08-.07.1-.04.02-.09.02-.13,0,0,0,0,0-.01,0-.02,0-.03-.02-.04-.04v.11s.02.01.03.01c0,0,.01,0,.02,0,.06.02.13.01.18-.02h.02s.01-.02.02-.03c0,0,.02-.02.03-.04.01-.03.02-.06.02-.09,0-.03,0-.06-.03-.08h0s0-.01,0-.02c0,0,0,0-.01-.01-.01-.01-.03-.02-.04-.02Z"/>
    <path class="cls-95" d="M7.95,3.72s-.05,0-.08,0c-.03,0-.05.01-.08.02-.01,0-.02.01-.03.02-.01,0-.03.01-.04.02v.1s0,0,.01-.02l.03-.03s.04-.02.06-.04c.02,0,.04-.02.07-.03.02,0,.04,0,.07,0h.06s.04,0,.06.01c.02,0,.04.01.05.02.04.01.06.04.08.05.03.02.05.04.06.05,0,0,0,0,0-.02-.01,0-.02-.03-.04-.05-.02-.02-.04-.04-.08-.06-.02,0-.03-.02-.05-.03-.02,0-.04-.01-.07-.02-.02,0-.05,0-.07-.01Z"/>
    <path class="cls-44" d="M8.01,4.88s-.04,0-.06,0c-.02,0-.04,0-.07-.01-.02,0-.05-.02-.07-.02-.02-.02-.05-.03-.06-.04l-.03-.03s0,0-.01-.01v.1s.03.02.04.02c.01,0,.02,0,.03.01.03.01.05.02.08.02.03,0,.06,0,.08,0,.03,0,.05,0,.07,0,.02,0,.04-.02.07-.02.02,0,.04-.02.05-.03.03-.02.05-.05.08-.06.02-.02.03-.04.04-.05,0,0,0,0,0-.01,0,0-.03.03-.06.05-.02.01-.04.04-.08.04-.02,0-.03.02-.05.02-.02,0-.04,0-.06.01Z"/>
    <path class="cls-37" d="M7.75,4.35s-.01,0-.02,0c0,0-.02,0-.03.02v.11s.03-.03.04-.04c0,0,0,0,.01,0,.05-.02.09-.02.13,0,.05.02.06.05.07.09,0,.02,0,.04-.01.06h0s0,.01,0,.01c0,0,0,.01,0,.01,0,0,0,.01-.02.02-.03.01-.07,0-.09-.02-.02-.02-.02-.05,0-.07.02-.03.03-.03.05-.03,0,0,.01,0,.02,0,0,0,0,0-.02,0,0,0-.01,0-.03,0-.01,0-.02.01-.03.02,0,.02-.02.03-.02.05,0,.02,0,.04.02.06.02.03.08.05.13.04.01,0,.03-.01.04-.02,0,0,0,0,.01-.01,0,0,0,0,0,0h0s.02-.06.03-.1c0-.03,0-.06-.02-.09,0-.01-.02-.03-.03-.04,0,0,0,0-.02-.02h-.02s-.12-.05-.18-.03Z"/>
    <path class="cls-17" d="M8.18,4.49s-.09-.09-.15-.13c-.04-.03,0-.04,0-.04l.03-.03c.05-.04.09-.07.12-.11.1-.12.09-.26.12-.25.01,0,.02.03.02.08,0,.05-.02.13-.07.2-.03.04-.08.08-.14.11.06.03.11.07.13.1.03.04.05.08.06.11,0,.04.02.07.02.1,0,.05,0,.09-.01.09-.03,0-.03-.11-.12-.24Z"/>
    <path class="cls-13" d="M7.95,2.43s.09.06.15.09c.02,0,.03.01.03.01.02,0-.03.02-.03.02l-.03.02c-.05.02-.09.05-.12.07-.1.08-.09.17-.12.17-.01,0-.02-.02-.02-.05,0-.03.02-.09.07-.14.03-.03.08-.06.14-.08-.06-.02-.11-.05-.13-.07-.03-.02-.05-.05-.06-.08,0-.02-.02-.05-.02-.07,0-.04,0-.06.01-.06.03,0,.03.08.12.16Z"/>
    <path class="cls-15" d="M7.95,6.01s.09.06.15.09c.02,0,.03.01.03.01.02,0-.03.02-.03.02l-.03.02c-.05.02-.09.05-.12.07-.1.08-.09.17-.12.17-.01,0-.02-.02-.02-.05,0-.03.02-.09.07-.14.03-.03.08-.06.14-.08-.06-.02-.11-.05-.13-.07-.03-.02-.05-.05-.06-.08,0-.03-.02-.05-.02-.07,0-.04,0-.06.01-.06.03,0,.03.08.12.16Z"/>
    <path class="cls-93" d="M8.02,2.72c-.11.08-.19.22-.23.37-.01.04-.02.07-.03.11l-.04.14v.34s.02-.04.03-.05c0-.02.01-.03.02-.05.07-.16.1-.32.13-.46.03-.15.09-.28.17-.35.09-.08.18-.11.25-.11.03,0,.06,0,.08,0,.01,0,.03,0,.03,0,0,0-.04-.01-.11-.02-.07,0-.17,0-.29.07Z"/>
    <path class="cls-30" d="M7.71,4.97v.34s.03.1.04.15c.01.03.02.07.03.1.05.16.13.3.24.38.1.08.22.08.28.08.04,0,.07-.01.09-.02,0,0,0,0-.01,0-.02,0-.04,0-.08,0-.07,0-.17-.03-.25-.11-.09-.07-.14-.21-.18-.36-.03-.14-.06-.3-.13-.46,0-.02-.01-.03-.02-.05,0-.02-.02-.04-.03-.05Z"/>
    <path class="cls-71" d="M8.38,6.15s.02.03.04.08c0,.03.03.05.03.09,0,.02,0,.04,0,.06,0,.02,0,.04,0,.06,0,.02,0,.04-.01.07,0,.02-.02.04-.03.07-.01.02-.03.05-.04.06-.02.02-.04.04-.06.05l-.04.03s-.02,0-.03.01c-.01,0-.03,0-.04,0-.01,0-.03,0-.04,0-.05,0-.11,0-.15-.04-.05-.03-.08-.07-.09-.12,0-.05,0-.1.03-.14.03-.04.07-.05.12-.05.02,0,.04.01.06.03h0s0,0,0,0c0,0,0,.01,0,.01,0,0,0,.01,0,.02,0,.04,0,.08-.04.09-.03.02-.06,0-.08,0-.02-.02-.02-.04-.01-.06,0-.01,0-.02,0-.02,0,0,0,0-.01.02,0,0,0,.02,0,.03,0,.01,0,.03.01.04.01.01.02.03.04.03.02,0,.05,0,.07,0,.04-.01.08-.07.07-.13,0-.01,0-.03-.01-.05,0,0,0-.01-.01-.02,0,0,0,0,0-.01h0s-.05-.05-.08-.06c-.03,0-.07,0-.1,0-.02,0-.04.02-.05.02,0,0,0,0-.02.02l-.02.02c-.05.05-.08.13-.06.2.01.08.06.14.12.18.06.04.14.06.21.05.02,0,.04,0,.05,0,.02,0,.04,0,.05-.02.02,0,.04-.02.05-.03l.04-.03s.05-.05.07-.07c.02-.03.03-.05.04-.08,0-.03.02-.06.03-.08,0-.03,0-.05,0-.08,0-.03,0-.05,0-.07,0-.02-.01-.04-.02-.06-.01-.04-.04-.07-.05-.09-.02-.02-.04-.04-.04-.05-.01,0-.02-.02-.02-.02Z"/>
    <path class="cls-31" d="M8.38,2.53s.02-.03.04-.08c0-.03.03-.05.03-.09,0-.02,0-.04,0-.06,0-.02,0-.04,0-.06,0-.02,0-.04-.01-.07,0-.02-.02-.04-.03-.07-.01-.02-.03-.04-.04-.06-.02-.02-.04-.04-.06-.06l-.04-.03s-.02,0-.03-.01c-.01,0-.03,0-.04-.01-.01,0-.03,0-.04,0-.05,0-.11.01-.15.04-.05.03-.08.08-.09.12,0,.05,0,.1.03.14.03.04.07.05.12.05.02,0,.04-.01.06-.03h0s0,0,0,0c0,0,0-.01,0-.01,0,0,0-.01,0-.02,0-.04,0-.08-.04-.09-.03-.02-.06,0-.08,0-.02.02-.02.04-.01.06,0,.01,0,.02,0,.02,0,0,0,0-.01-.02,0,0,0-.02,0-.03,0-.02,0-.03.01-.04.01-.01.02-.03.04-.03.02,0,.05,0,.07,0,.04.01.08.07.07.13,0,.01,0,.03-.01.05,0,0,0,.01-.01.02,0,0,0,0,0,0h0s-.05.05-.08.06c-.03,0-.07,0-.1,0-.02,0-.04-.02-.05-.02,0,0,0,0-.02-.02l-.02-.02c-.05-.05-.08-.13-.06-.2.01-.08.06-.14.12-.18.06-.04.14-.06.21-.05.02,0,.04,0,.05,0,.02,0,.04,0,.05.02.02,0,.04.02.05.03l.04.03s.05.05.07.07c.02.03.03.05.04.08,0,.03.02.06.03.08,0,.03,0,.05,0,.08,0,.03,0,.05,0,.07,0,.02-.01.04-.02.06-.01.04-.04.07-.05.09-.02.02-.04.04-.04.05-.01.01-.02.02-.02.02Z"/>
    <path class="cls-85" d="M8.1,1.78s-.02,0-.06,0c-.02,0-.04.01-.07.02-.02.01-.05.03-.08.05-.03.02-.05.06-.08.11-.02.05-.03.1-.03.15,0,.1.02.18.02.17-.01-.06-.01-.14.01-.22.02-.08.07-.14.12-.17.09-.07.17-.07.17-.09Z"/>
    <path class="cls-39" d="M8.11,6.89s-.02,0-.06,0c-.02,0-.04-.01-.07-.02-.02-.01-.05-.03-.08-.05-.03-.02-.05-.06-.08-.11-.02-.05-.03-.1-.03-.15,0-.1.02-.18.02-.17-.01.06-.01.14.01.22.02.08.07.14.12.18.09.07.17.07.17.09Z"/>
    <path class="cls-16" d="M8.69,2.21c.02.18-.03.37-.11.54-.08.17-.19.32-.29.45-.09.12-.15.25-.15.36,0,.12.04.21.08.26.02.03.04.04.05.06.01.01.02.02.02.02,0,0-.04-.02-.08-.07-.05-.04-.12-.13-.13-.26-.01-.13.04-.29.12-.42.05-.08.1-.15.15-.23,0,0,0-.01,0-.02.03-.04.05-.09.08-.14,0-.01.01-.02.02-.03,0,0,0-.02.01-.02.03-.06.05-.13.08-.2h0s0-.02,0-.03c0-.01,0-.02,0-.04,0-.01,0-.03,0-.04.01-.06.02-.12.01-.17,0-.15-.09-.26-.18-.33-.04-.04-.09-.07-.13-.09-.04-.02-.08-.04-.11-.05-.04-.02-.08-.03-.09-.04.01,0,.05.01.1.02.04,0,.08.02.12.03.05.01.1.04.15.07.1.06.22.2.25.37Z"/>
    <path class="cls-28" d="M8.69,6.47c.02-.18-.03-.37-.11-.54-.08-.17-.19-.32-.29-.45-.09-.12-.15-.25-.15-.36,0-.12.04-.21.08-.26.02-.03.04-.04.05-.06.01-.01.02-.02.02-.02,0,0-.04.02-.08.07-.05.04-.12.13-.13.26-.01.13.04.29.12.42.05.08.1.15.15.23,0,0,0,.01,0,.02.03.04.05.09.08.14,0,.01.01.02.02.03,0,0,0,.02.01.02.03.06.05.13.08.2h0s0,.02,0,.03c0,.01,0,.02,0,.04,0,.01,0,.03,0,.04.01.06.02.12.01.17,0,.15-.09.26-.18.33-.04.04-.09.07-.13.08-.04.02-.08.04-.11.05-.04.02-.08.03-.09.04.01,0,.05-.01.1-.02.04,0,.08-.02.12-.03.05-.01.1-.04.15-.07.1-.06.22-.2.25-.38Z"/>
    <path class="cls-57" d="M8.31,3.8s0,0,0,0c0,0,0,0,0,0,0,0-.01,0-.02-.02,0,0,0,0,0,0,0,0-.01-.01-.02-.02,0,0-.02-.01-.02-.02,0,0-.01-.02-.02-.03v-.03s0,0,0,0c0-.02-.02-.04-.02-.06,0-.07.02-.16.07-.24.03-.04.06-.09.08-.13,0,0,0,0,0,0,.02-.03.03-.05.04-.08,0,0,0-.01.01-.02,0,0,0,0,0-.01v.02c-.04.1-.16.39-.17.4,0,.01,0,.03,0,.04,0,.01,0,.03,0,.04,0,.01,0,.03.01.04h0s0,.02,0,.02c0,0,0,.01.01.02,0,0,0,0,.02.01,0,0,.01.01.02.01.03.02.06.03.09.02.03,0,.06-.01.08-.03.02-.02.03-.05.02-.08,0-.03-.02-.05-.04-.06,0,0-.02,0-.04,0h0s0,0,0,0c0,0,0,0,0,0,0,0,0,0-.01,0-.01.02-.02.04,0,.06,0,.01.03.02.04.02.02,0,.02-.01.02-.02,0,0,0,0,0,0,0,0,0,0,0,0,0,0,0,0,0,.02,0,0,0,.01-.01.01-.01,0-.02,0-.03,0-.01,0-.02-.01-.03-.02-.02-.02-.02-.05,0-.08,0,0,.01-.01.02-.02h0s0,0,0,0h0s.03,0,.05,0c.02,0,.04.02.05.03,0,0,.01.02.02.03t0,.01h0c0,.05,0,.1-.03.13-.03.04-.07.05-.11.05-.04,0-.07-.01-.11-.03Z"/>
    <path class="cls-26" d="M8.31,4.86s0,0,0,0h0s-.01,0-.02.01c0,0,0,0,0,0,0,0-.01.01-.02.02,0,0-.02.01-.02.02,0,0-.01.02-.02.03v.03s0,0,0,0c0,.02-.02.04-.02.06,0,.07.02.16.07.24.03.04.06.09.08.13,0,0,0,0,0,0,.02.03.03.05.04.08,0,0,0,.01.01.02,0,0,0,0,0,.01v-.02c-.04-.1-.16-.39-.17-.4,0-.01,0-.03,0-.04,0-.02,0-.03,0-.04,0-.01,0-.03.01-.04h0s0-.02,0-.02c0,0,0,0,.01-.02,0,0,0,0,.02-.01,0,0,.01-.01.02-.01.03-.02.06-.03.09-.03.03,0,.06.01.08.03.02.02.03.05.02.08,0,.03-.02.05-.04.06,0,0-.02,0-.04,0h0s0,0,0,0c0,0,0,0,0,0,0,0,0,0-.01,0-.01-.01-.02-.04,0-.06,0-.01.03-.02.04-.02.02,0,.02.01.02.02,0,0,0,0,0,0,0,0,0,0,0,0,0,0,0,0,0-.02,0,0,0,0-.01-.01-.01,0-.02,0-.03,0-.01,0-.02.01-.03.02-.02.02-.02.05,0,.08,0,0,.01.01.02.02h0s0,0,0,0h0s.03,0,.05,0c.02,0,.04-.02.05-.03,0,0,.01-.02.02-.03t0-.01h0c0-.05,0-.1-.03-.13-.03-.04-.07-.05-.11-.05-.04,0-.07.01-.11.03Z"/>
    <path class="cls-106" d="M8.08,1.06c.02-.06.08-.1.15-.07.18.08-.16.45.46.97-.33-.19-.73-.62-.62-.9Z"/>
    <path class="cls-75" d="M7.87,1.5s-.05.05-.03.09c.06.09.23-.12.56.18-.13-.17-.39-.35-.53-.27Z"/>
    <path class="cls-61" d="M8.08,7.63c.02.05.08.1.15.07.18-.08-.16-.45.46-.97-.33.19-.73.62-.62.9Z"/>
    <path class="cls-50" d="M7.87,7.19s-.05-.05-.03-.09c.06-.09.23.12.56-.18-.13.17-.39.35-.53.27Z"/>
    <path class="cls-101" d="M6.82,7.94H1.88c-.62,0-1.13-.51-1.13-1.12V1.88c0-.62.5-1.12,1.13-1.12h4.94c.62,0,1.12.5,1.12,1.12v4.94c0,.62-.5,1.12-1.12,1.12ZM1.88,1c-.48,0-.88.39-.88.88v4.94c0,.48.39.88.88.88h4.94c.48,0,.88-.39.88-.88V1.88c0-.48-.39-.88-.88-.88H1.88Z"/>
    <path class="cls-104" d="M6.55,7.49H2.15c-.52,0-.94-.42-.94-.94V2.14c0-.52.42-.94.94-.94h4.4c.52,0,.94.42.94.94v4.4c0,.52-.42.94-.94.94ZM2.15,1.3c-.46,0-.84.38-.84.84v4.4c0,.46.38.84.84.84h4.4c.46,0,.84-.38.84-.84V2.14c0-.46-.38-.84-.84-.84H2.15Z"/>
    <path class="cls-86" d="M3.89,4.43v1.29c0,.25.01.43.04.55.03.12.08.22.15.29.07.07.14.12.23.15.09.03.2.05.34.06v.08h-2.3v-.08c.14,0,.25-.03.34-.06.09-.03.16-.08.23-.15.08-.08.13-.17.15-.29.03-.12.04-.3.04-.55v-2.65c0-.21,0-.37-.03-.48-.02-.11-.05-.2-.09-.27-.06-.1-.14-.17-.24-.21-.1-.05-.22-.08-.37-.08h-.02v-.08h2.17c.38,0,.66.02.84.06.18.04.34.12.49.23.34.26.51.6.51,1.04s-.17.76-.52.96c-.18.11-.4.17-.65.19-.08,0-.28,0-.59,0h-.71ZM3.89,4.32h.35c.24,0,.42-.02.55-.05.13-.04.24-.1.34-.19.24-.21.35-.5.35-.85,0-.2-.03-.38-.1-.54-.07-.16-.17-.3-.29-.4-.15-.12-.32-.19-.52-.22-.05,0-.18,0-.38,0h-.3v2.26Z"/>
  </g>
</svg>